<svg width="24" height="24" viewBox="0 0 24 24" fill="none" xmlns="http://www.w3.org/2000/svg">
<rect width="24" height="24" rx="12" fill="#F5FFFA"/>
<g filter="url(#filter0_d_3029_27251)">
<path d="M12.2549 12.9913C12.3388 12.9913 12.4068 12.9233 12.4068 12.8394C12.4068 12.7555 12.3388 12.6875 12.2549 12.6875C12.171 12.6875 12.103 12.7555 12.103 12.8394C12.103 12.9233 12.171 12.9913 12.2549 12.9913Z" fill="#4DDE95"/>
</g>
<path d="M11.6837 12.9609L15.3494 16.4748L19.2577 17.4687L14.8256 18.4021L11.1774 15.0626L7.56616 14.1513L11.6837 12.9609Z" fill="#4DDE95"/>
<path d="M12.4325 12.2822L7.55631 13.6997L4.7417 16.5878L6.14936 12.2825L10.8656 10.7926L13.4601 8.12109L12.4325 12.2822Z" fill="#4DDE95"/>
<path d="M12.647 13.27L13.8578 8.33863L12.764 4.45703L15.7885 7.82887L14.7205 12.6579L15.7372 16.2407L12.647 13.27Z" fill="#4DDE95"/>
<defs>
<filter id="filter0_d_3029_27251" x="11.3999" y="11.9844" width="1.70996" height="1.71094" filterUnits="userSpaceOnUse" color-interpolation-filters="sRGB">
<feFlood flood-opacity="0" result="BackgroundImageFix"/>
<feColorMatrix in="SourceAlpha" type="matrix" values="0 0 0 0 0 0 0 0 0 0 0 0 0 0 0 0 0 0 127 0" result="hardAlpha"/>
<feOffset/>
<feGaussianBlur stdDeviation="0.351562"/>
<feColorMatrix type="matrix" values="0 0 0 0 0.301961 0 0 0 0 0.870588 0 0 0 0 0.584314 0 0 0 1 0"/>
<feBlend mode="normal" in2="BackgroundImageFix" result="effect1_dropShadow_3029_27251"/>
<feBlend mode="normal" in="SourceGraphic" in2="effect1_dropShadow_3029_27251" result="shape"/>
</filter>
</defs>
</svg>
