<svg width="24" height="24" viewBox="0 0 24 24" fill="none" xmlns="http://www.w3.org/2000/svg">
<path d="M21.959 13.7203V21.0993H17.681V14.2143C17.681 12.4843 17.062 11.3043 15.514 11.3043C14.332 11.3043 13.628 12.1003 13.319 12.8693C13.206 13.1443 13.177 13.5273 13.177 13.9123V21.0993H8.897C8.897 21.0993 8.955 9.43934 8.897 8.23034H13.177V10.0543L13.149 10.0963H13.177V10.0543C13.745 9.17934 14.76 7.92834 17.033 7.92834C19.848 7.92834 21.959 9.76834 21.959 13.7203ZM4.421 2.02734C2.958 2.02734 2 2.98734 2 4.25034C2 5.48534 2.93 6.47434 4.365 6.47434H4.393C5.886 6.47434 6.813 5.48534 6.813 4.25034C6.787 2.98734 5.887 2.02734 4.422 2.02734H4.421ZM2.254 21.0993H6.532V8.23034H2.254V21.0993Z" fill="white" fill-opacity="0.4"/>
</svg>
