<svg width="206" height="124" viewBox="0 0 206 124" fill="none" xmlns="http://www.w3.org/2000/svg">
<path d="M74.1634 51.1652C74.1634 52.7986 74.3813 54.1054 74.5992 55.0855C74.9262 56.0656 75.362 57.0457 76.0159 58.2435C76.2338 58.5702 76.3428 58.8969 76.3428 59.2236C76.3428 59.6592 76.1248 60.0948 75.471 60.5304L72.7467 62.3817C72.3109 62.5995 71.9839 62.8173 71.657 62.8173C71.2212 62.8173 70.7853 62.5995 70.3494 62.1639C69.6956 61.5105 69.2597 60.8571 68.8238 60.0948C68.3879 59.3325 67.952 58.5702 67.5162 57.4813C64.1381 61.5105 59.8882 63.4707 54.6576 63.4707C50.9527 63.4707 48.1194 62.3817 45.94 60.3126C43.7606 58.2436 42.6709 55.4122 42.6709 51.9274C42.6709 48.2249 43.9785 45.1757 46.5938 42.9978C49.2091 40.8198 52.8052 39.6219 57.2729 39.6219C58.7985 39.6219 60.3241 39.7308 61.8497 39.9486C63.4843 40.1664 65.1188 40.4931 66.8623 40.9287V37.7706C66.8623 34.5037 66.2085 32.1079 64.7919 30.8011C63.3753 29.4944 61.0869 28.841 57.7088 28.841C56.1832 28.841 54.6576 29.0588 53.0231 29.3855C51.3885 29.8211 49.8629 30.2567 48.3374 30.91C47.6835 31.1278 47.1387 31.3456 46.8118 31.4545C46.4849 31.4545 46.2669 31.5634 46.158 31.5634C45.5041 31.5634 45.2862 31.1278 45.2862 30.2567V28.0787C45.2862 27.4253 45.3952 26.8808 45.6131 26.5541C45.831 26.2274 46.2669 25.9007 46.8118 25.6829C48.3374 24.9206 50.1899 24.2672 52.2603 23.7227C54.4397 23.1783 56.6191 22.8516 59.0165 22.8516C64.247 22.8516 67.952 24.0494 70.4584 26.3363C72.8557 28.7321 74.0544 32.2168 74.0544 37.1173L74.1634 51.1652ZM56.5101 57.808C57.9268 57.808 59.4523 57.5902 60.9779 57.0457C62.5035 56.5012 63.9201 55.5211 65.1188 54.2143C65.7726 53.3431 66.3175 52.4719 66.6444 51.3829C66.8623 50.294 67.0803 49.0961 67.0803 47.5715V45.7202C65.7726 45.3935 64.465 45.1757 63.0484 44.9579C61.6318 44.7401 60.3241 44.7401 58.9075 44.7401C55.9653 44.7401 53.8949 45.2846 52.3693 46.4825C50.9527 47.6804 50.1899 49.3139 50.1899 51.4918C50.1899 53.5609 50.7347 55.0855 51.8244 56.0656C52.9141 57.3724 54.4397 57.808 56.5101 57.808ZM91.4897 62.5995C90.7269 62.5995 90.182 62.4906 89.8551 62.1639C89.5282 61.9461 89.2013 61.2927 88.9833 60.4215L78.7401 26.663C78.5222 25.7918 78.3042 25.2473 78.3042 24.9206C78.3042 24.2672 78.6311 23.8316 79.3939 23.8316H83.6438C84.5155 23.8316 85.0604 23.9405 85.3873 24.2672C85.7142 24.485 86.0411 25.1384 86.2591 26.0096L93.5601 54.8677L100.316 26.0096C100.534 25.1384 100.752 24.5939 101.188 24.2672C101.515 24.0494 102.169 23.8316 102.932 23.8316H106.419C107.29 23.8316 107.835 23.9405 108.162 24.2672C108.489 24.485 108.816 25.1384 109.034 26.0096L115.899 55.1944L123.418 26.0096C123.636 25.1384 123.963 24.5939 124.29 24.2672C124.617 24.0494 125.162 23.8316 126.033 23.8316H130.065C130.719 23.8316 131.155 24.1583 131.155 24.9206C131.155 25.1384 131.155 25.3562 131.046 25.574C131.046 25.7918 130.937 26.2274 130.719 26.663L120.149 60.4215C119.931 61.2927 119.604 61.8372 119.277 62.1639C118.95 62.3817 118.405 62.5995 117.643 62.5995H113.938C113.066 62.5995 112.521 62.4906 112.194 62.1639C111.867 61.8372 111.54 61.2927 111.322 60.4215L104.566 32.3257L97.8099 60.4215C97.592 61.2927 97.3741 61.8372 96.9382 62.1639C96.6113 62.4906 95.9575 62.5995 95.1947 62.5995H91.4897ZM147.609 63.6885C145.321 63.6885 143.033 63.4707 140.853 62.9262C138.674 62.3817 136.93 61.8372 135.841 61.1838C135.187 60.7482 134.642 60.3126 134.533 59.9859C134.424 59.6592 134.206 59.1147 134.206 58.788V56.6101C134.206 55.7389 134.533 55.3033 135.187 55.3033C135.405 55.3033 135.732 55.3033 135.95 55.4122C136.168 55.5211 136.603 55.63 137.039 55.8478C138.565 56.5012 140.09 57.0457 141.834 57.3724C143.578 57.6991 145.321 57.9169 147.065 57.9169C149.789 57.9169 151.968 57.4813 153.385 56.5012C154.91 55.5211 155.673 54.1054 155.673 52.363C155.673 51.1652 155.237 50.1851 154.475 49.3139C153.712 48.4427 152.186 47.7893 150.116 47.027L143.795 45.0668C140.635 44.0868 138.238 42.5622 136.821 40.602C135.405 38.6418 134.642 36.5728 134.642 34.2859C134.642 32.4346 135.078 30.8011 135.841 29.4944C136.603 28.1876 137.693 26.8808 139.001 25.9007C140.308 24.9206 141.834 24.1583 143.578 23.6139C145.321 23.0694 147.174 22.8516 149.026 22.8516C150.007 22.8516 150.988 22.8516 151.968 23.0694C152.949 23.1783 153.93 23.3961 154.801 23.505C155.673 23.7227 156.545 23.9405 157.308 24.1583C158.071 24.3761 158.724 24.7028 159.16 24.9206C159.814 25.2473 160.25 25.574 160.468 26.0096C160.686 26.3363 160.904 26.8808 160.904 27.4253V29.4944C160.904 30.3656 160.577 30.91 159.923 30.91C159.596 30.91 159.051 30.6922 158.289 30.3656C155.782 29.2766 153.058 28.6232 149.898 28.6232C147.392 28.6232 145.43 29.0588 144.122 29.8211C142.815 30.5834 142.052 31.8901 142.052 33.7414C142.052 34.9393 142.488 36.0283 143.36 36.7906C144.231 37.6617 145.866 38.424 148.154 39.1863L154.366 41.1465C157.526 42.1266 159.814 43.5423 161.122 45.2846C162.429 47.027 163.083 49.0961 163.083 51.3829C163.083 53.2342 162.647 54.9766 161.994 56.3923C161.231 57.9169 160.141 59.2236 158.833 60.2037C157.526 61.2927 155.891 62.055 154.039 62.5995C151.859 63.4707 149.789 63.6885 147.609 63.6885Z" fill="white"/>
<path fill-rule="evenodd" clip-rule="evenodd" d="M155.891 84.9226C141.507 95.4858 120.585 101.149 102.714 101.149C77.5415 101.149 54.8757 91.8921 37.7673 76.4286C36.4597 75.2307 37.6583 73.5972 39.2929 74.4684C57.8179 85.2493 80.5927 91.6743 104.239 91.6743C120.149 91.6743 137.693 88.4074 153.821 81.5468C156.109 80.5667 158.18 83.1803 155.891 84.9226Z" fill="#FF9900"/>
<path fill-rule="evenodd" clip-rule="evenodd" d="M161.775 78.1725C159.923 75.7767 149.679 77.0835 144.994 77.628C143.577 77.8458 143.359 76.539 144.667 75.6678C152.839 69.8962 166.352 71.5297 167.877 73.4899C169.403 75.45 167.441 88.9534 159.814 95.3784C158.615 96.3585 157.525 95.814 158.07 94.5072C159.814 90.1513 163.628 80.4594 161.775 78.1725Z" fill="#FF9900"/>
</svg>
