<svg width="203" height="215" viewBox="0 0 203 215" fill="none" xmlns="http://www.w3.org/2000/svg">
<g clip-path="url(#clip0_2705_85636)">
<path d="M146.654 161.023L178.57 179.451L191.835 178.934" stroke="#373A3A" stroke-width="1.10172" stroke-linecap="round" stroke-linejoin="round"/>
<path d="M137.954 166.43L194.27 198.945" stroke="#373A3A" stroke-width="1.10172" stroke-linecap="round" stroke-linejoin="round"/>
<path d="M128.923 171.645L171.923 196.474" stroke="#373A3A" stroke-width="1.10172" stroke-linecap="round" stroke-linejoin="round"/>
<path d="M119.889 176.859L153.624 196.338L156.22 209.287" stroke="#373A3A" stroke-width="1.10172" stroke-linecap="round" stroke-linejoin="round"/>
<path d="M199.481 176.901C197.729 175.887 194.89 175.887 193.135 176.901C191.38 177.914 191.383 179.552 193.135 180.573C194.887 181.594 197.729 181.587 199.481 180.573C201.233 179.56 201.233 177.911 199.481 176.901Z" stroke="#373A3A" stroke-width="1.10172" stroke-linecap="round" stroke-linejoin="round"/>
<path d="M200.63 198.944C198.879 197.93 196.036 197.93 194.285 198.944C192.533 199.957 192.533 201.595 194.285 202.616C196.036 203.637 198.879 203.63 200.63 202.616C202.382 201.603 202.367 199.954 200.63 198.944Z" stroke="#373A3A" stroke-width="1.10172" stroke-linecap="round" stroke-linejoin="round"/>
<path d="M178.269 196.471C176.517 195.458 173.678 195.458 171.923 196.471C170.168 197.485 170.171 199.123 171.923 200.144C173.675 201.164 176.517 201.157 178.269 200.144C180.021 199.13 180.024 197.481 178.269 196.471Z" stroke="#373A3A" stroke-width="1.10172" stroke-linecap="round" stroke-linejoin="round"/>
<path d="M159.907 210.03C158.155 209.016 155.317 209.016 153.565 210.03C151.813 211.043 151.81 212.681 153.565 213.702C155.32 214.723 158.155 214.716 159.907 213.702C161.659 212.689 161.663 211.04 159.907 210.03Z" stroke="#373A3A" stroke-width="1.10172" stroke-linecap="round" stroke-linejoin="round"/>
<path d="M70.209 177.383L36.0852 197.085L37.9067 210.331" stroke="#373A3A" stroke-width="1.10172" stroke-linecap="round" stroke-linejoin="round"/>
<path d="M61.0353 172.469L11.6013 201.011" stroke="#373A3A" stroke-width="1.10172" stroke-linecap="round" stroke-linejoin="round"/>
<path d="M52.1885 167.359L15.7952 188.373" stroke="#373A3A" stroke-width="1.10172" stroke-linecap="round" stroke-linejoin="round"/>
<path d="M43.3418 162.254L16.0265 178.023L1.40308 179.125" stroke="#373A3A" stroke-width="1.10172" stroke-linecap="round" stroke-linejoin="round"/>
<path d="M15.7953 191.96C17.5103 190.969 17.5103 189.364 15.7953 188.373C14.0803 187.381 11.2966 187.381 9.58158 188.373C7.86657 189.364 7.8629 190.969 9.58158 191.96C11.3003 192.952 14.0729 192.952 15.7953 191.96Z" stroke="#373A3A" stroke-width="1.10172" stroke-linecap="round" stroke-linejoin="round"/>
<path d="M181.31 74.2148V150.733L161.776 162.007V154.67L121.461 177.945V185.275L95.4163 200.31V123.803L181.31 74.2148Z" fill="#969A9E"/>
<path d="M181.31 74.2174L95.4162 123.806L9.53003 74.2174L95.4162 24.6328L181.31 74.2174Z" fill="white"/>
<path d="M161.776 154.672V162.009L155.419 158.341L161.776 154.672Z" fill="#373A3A"/>
<path d="M95.4165 123.803V200.31L69.3682 185.275V177.945L29.0527 154.67V162.007L9.51929 150.733V74.2148H9.5303L95.4165 123.803Z" fill="#DAE0E5"/>
<path d="M35.4094 158.341L29.0525 162.009V154.672L35.4094 158.341Z" fill="#373A3A"/>
<path d="M9.53003 74.2174L95.4162 24.6328L181.31 74.2174L95.4162 123.806L9.53003 74.2174Z" stroke="#373A3A" stroke-width="1.10172" stroke-linecap="round" stroke-linejoin="round"/>
<path d="M95.4163 123.805V200.312" stroke="#373A3A" stroke-width="1.10172" stroke-linecap="round" stroke-linejoin="round"/>
<path d="M9.51929 74.2148V150.733L29.0527 162.007V154.67L69.3682 177.945V185.275L95.4165 200.31L121.461 185.275V177.945L161.777 154.67V162.007L181.31 150.733V74.2148" stroke="#373A3A" stroke-width="1.10172" stroke-linecap="round" stroke-linejoin="round"/>
<path d="M161.776 162.009L155.419 158.34" stroke="#373A3A" stroke-width="1.10172" stroke-linecap="round" stroke-linejoin="round"/>
<path d="M29.0525 162.009L35.4094 158.34" stroke="#373A3A" stroke-width="1.10172" stroke-linecap="round" stroke-linejoin="round"/>
<path d="M170.414 43.8477V63.5941L95.4199 106.884V87.1488L170.414 43.8477Z" fill="#373A3A"/>
<path d="M170.414 43.8482L95.4199 87.1494L20.4224 43.8482L95.4199 0.550781L170.414 43.8482ZM94.8433 77.1641L152.551 43.8446L94.8433 10.5323L50.7967 35.9563V51.7476L94.8433 77.1641Z" fill="white"/>
<path d="M152.551 43.8435L94.8435 77.1631L50.8115 51.7391V35.9552L94.8435 10.5312L152.551 43.8435Z" fill="#34CC80"/>
<path d="M95.4199 87.1488V106.884L20.4224 63.5941V43.8477L95.4199 87.1488Z" fill="#C2C7CC"/>
<path d="M20.4224 43.8482L95.4199 0.550781L170.414 43.8482L95.4199 87.1494L20.4224 43.8482Z" stroke="#373A3A" stroke-width="1.10172" stroke-linecap="round" stroke-linejoin="round"/>
<path d="M20.4224 43.8477V63.5941L95.4199 106.884L170.414 63.5941V43.8477" stroke="#373A3A" stroke-width="1.10172" stroke-linecap="round" stroke-linejoin="round"/>
<path d="M50.8115 35.9552L94.8435 10.5312L152.551 43.8435L94.8435 77.1631L50.8115 51.7391V35.9552Z" stroke="#373A3A" stroke-width="1.10172" stroke-linecap="round" stroke-linejoin="round"/>
<path d="M95.4199 87.1484V106.884" stroke="#373A3A" stroke-width="1.10172" stroke-linecap="round" stroke-linejoin="round"/>
<path d="M102.052 47.3285L92.8971 52.6167L95.4017 56.0247L89.1586 59.6346L77.0654 41.6142L83.0955 38.1328L114.336 45.1104L107.965 48.7827L102.052 47.3285ZM95.7432 45.7567L86.0297 43.366L90.1759 48.9737L95.7432 45.7567Z" fill="white"/>
<path d="M94.4138 31.599L100.536 28.0625L122.188 40.5633L116.066 44.0998L94.4138 31.599Z" fill="white"/>
<path d="M176.51 89.273V112.673C176.51 116.955 174.957 120.209 172.129 121.854C170.909 122.554 169.525 122.917 168.119 122.905C166.621 122.881 165.144 122.556 163.774 121.95C163.853 121.297 163.893 120.639 163.892 119.981V117.517L164.083 117.235L164.174 117.29C166.448 118.601 168.556 118.887 169.962 118.079C171.369 117.271 172.165 115.296 172.165 112.666V89.273C172.165 82.9087 167.513 74.8405 162 71.6455L152.03 65.8872C151.783 65.7449 151.567 65.5555 151.394 65.3298C151.221 65.104 151.094 64.8464 151.02 64.5715C150.946 64.2966 150.928 64.01 150.965 63.7279C151.002 63.4457 151.094 63.1737 151.237 62.9273C151.379 62.6808 151.568 62.4648 151.794 62.2916C152.02 62.1183 152.277 61.9913 152.552 61.9176C152.827 61.8439 153.114 61.8251 153.396 61.8623C153.678 61.8994 153.95 61.9917 154.196 62.134L164.167 67.8923C171.093 71.8989 176.51 81.2855 176.51 89.273Z" fill="white"/>
<path d="M163.906 100.816C165.974 101.382 167.344 103.674 167.344 107.188C167.344 110.585 166.058 114.327 164.097 117.239L163.906 117.148V100.816Z" fill="#373A3A"/>
<path d="M164.083 117.24L163.906 117.516V117.148L164.083 117.24Z" fill="white"/>
<path d="M163.906 117.516V119.959C163.907 120.616 163.868 121.274 163.789 121.927C163.374 125.232 161.897 127.748 159.525 129.118C158.304 129.818 156.919 130.181 155.511 130.168C154.013 130.143 152.534 129.819 151.163 129.213C151.245 128.56 151.286 127.903 151.284 127.245V124.41L151.571 124.575C152.057 124.858 152.564 125.104 153.087 125.309C154.762 125.963 156.268 125.989 157.355 125.364C158.442 124.74 159.173 123.414 159.441 121.637C159.526 121.082 159.569 120.52 159.569 119.959V96.5581C159.569 90.1939 154.913 82.1293 149.4 78.9306L139.43 73.1797C138.942 72.8869 138.589 72.4143 138.446 71.8636C138.303 71.3129 138.382 70.7282 138.666 70.2353C138.95 69.7424 139.416 69.3807 139.965 69.228C140.513 69.0754 141.099 69.144 141.597 69.4192L151.571 75.1775C158.471 79.184 163.906 88.5707 163.906 96.5581V117.516Z" fill="white"/>
<path d="M159.554 119.637V119.967C159.554 120.529 159.511 121.09 159.426 121.646L153.073 125.318C152.549 125.112 152.042 124.867 151.556 124.584L151.27 124.418V106.563L159.554 101.789V114.642L156.848 113.082C156.601 112.939 156.329 112.847 156.047 112.81C155.764 112.773 155.477 112.792 155.202 112.866C154.927 112.94 154.67 113.067 154.444 113.24C154.218 113.414 154.028 113.63 153.886 113.877C153.744 114.123 153.652 114.396 153.615 114.678C153.577 114.96 153.596 115.247 153.67 115.522C153.744 115.797 153.871 116.055 154.045 116.281C154.218 116.507 154.435 116.696 154.681 116.839L159.554 119.637Z" fill="#373A3A"/>
<path d="M159.555 114.628V119.637L154.681 116.824C154.435 116.682 154.218 116.492 154.045 116.267C153.871 116.041 153.744 115.783 153.67 115.508C153.597 115.233 153.578 114.946 153.615 114.664C153.652 114.381 153.744 114.109 153.886 113.862C154.028 113.616 154.218 113.4 154.444 113.226C154.67 113.053 154.927 112.925 155.202 112.851C155.477 112.778 155.764 112.759 156.047 112.796C156.329 112.833 156.601 112.925 156.848 113.067L159.555 114.628Z" fill="white"/>
<path d="M151.27 124.417V127.252C151.271 127.91 151.231 128.567 151.149 129.22C150.741 132.525 149.265 135.041 146.889 136.411C145.669 137.111 144.285 137.474 142.878 137.461C141.38 137.436 139.902 137.113 138.53 136.51C138.609 135.855 138.649 135.197 138.648 134.538V131.706L138.931 131.868C139.418 132.151 139.926 132.397 140.451 132.602C142.129 133.252 143.635 133.282 144.722 132.658C145.809 132.033 146.536 130.707 146.808 128.93C146.89 128.374 146.932 127.813 146.933 127.252V103.848C146.933 97.4797 142.276 89.4151 136.76 86.2201L126.793 80.4692C126.295 80.1814 125.931 79.7073 125.782 79.1511C125.632 78.595 125.71 78.0024 125.998 77.5037C126.286 77.0051 126.76 76.6411 127.316 76.492C127.872 76.3429 128.465 76.4209 128.964 76.7087L138.934 82.478C145.857 86.4699 151.273 95.8565 151.273 103.848L151.27 124.417Z" fill="white"/>
<path d="M146.933 126.922V127.252C146.932 127.814 146.89 128.375 146.808 128.931L140.451 132.603C139.926 132.397 139.418 132.152 138.93 131.868L138.648 131.707V113.844L146.933 109.07V121.924L144.23 120.363C143.983 120.22 143.71 120.128 143.427 120.091C143.144 120.054 142.857 120.073 142.581 120.147C142.306 120.221 142.047 120.348 141.821 120.522C141.595 120.696 141.405 120.913 141.262 121.16C141.12 121.407 141.027 121.68 140.99 121.963C140.953 122.246 140.972 122.533 141.046 122.809C141.12 123.084 141.248 123.342 141.422 123.569C141.596 123.795 141.812 123.985 142.059 124.127L146.933 126.922Z" fill="#373A3A"/>
<path d="M146.933 121.923V126.928L142.059 124.126C141.813 123.984 141.597 123.794 141.424 123.568C141.251 123.342 141.124 123.084 141.05 122.809C140.977 122.534 140.958 122.248 140.996 121.965C141.033 121.683 141.125 121.411 141.268 121.165C141.41 120.918 141.6 120.702 141.826 120.529C142.052 120.356 142.31 120.229 142.585 120.156C142.86 120.082 143.147 120.063 143.429 120.101C143.711 120.138 143.983 120.231 144.23 120.373L146.933 121.923Z" fill="white"/>
<path d="M138.648 131.706V134.537C138.649 135.197 138.609 135.855 138.53 136.509C138.119 139.815 136.643 142.327 134.267 143.696C133.047 144.398 131.663 144.76 130.256 144.747C128.336 144.747 126.261 144.133 124.142 142.91L116.819 138.68C116.573 138.538 116.357 138.348 116.183 138.122C116.01 137.897 115.883 137.639 115.809 137.364C115.736 137.089 115.717 136.803 115.754 136.521C115.791 136.238 115.884 135.966 116.026 135.72C116.168 135.473 116.357 135.257 116.583 135.084C116.809 134.911 117.067 134.784 117.341 134.71C117.616 134.637 117.903 134.618 118.185 134.655C118.467 134.692 118.739 134.784 118.986 134.927L126.309 139.154C126.796 139.437 127.304 139.682 127.829 139.888C129.503 140.542 131.013 140.571 132.1 139.943C133.187 139.315 133.914 137.997 134.186 136.216C134.27 135.66 134.312 135.099 134.311 134.537V111.133C134.311 104.769 129.658 96.7008 124.142 93.5058L114.175 87.7695C113.928 87.6273 113.712 87.4378 113.539 87.212C113.365 86.9861 113.238 86.7283 113.164 86.4533C113.09 86.1783 113.071 85.8914 113.108 85.609C113.145 85.3267 113.238 85.0544 113.38 84.8077C113.522 84.5611 113.712 84.3448 113.937 84.1714C114.163 83.9979 114.421 83.8706 114.696 83.7968C114.971 83.723 115.258 83.704 115.54 83.7411C115.823 83.7781 116.095 83.8704 116.342 84.0127L126.309 89.7673C133.231 93.7592 138.648 103.146 138.648 111.137V131.706Z" fill="white"/>
<path d="M134.311 134.207V134.537C134.312 135.099 134.27 135.66 134.186 136.216L127.829 139.888C127.304 139.682 126.796 139.437 126.309 139.153L118.986 134.927C118.739 134.784 118.467 134.692 118.185 134.655C117.903 134.618 117.616 134.636 117.342 134.71C117.067 134.784 116.809 134.911 116.583 135.084C116.358 135.257 116.168 135.473 116.026 135.72C115.884 135.966 115.791 136.238 115.754 136.52C115.717 136.802 115.736 137.089 115.809 137.364C115.883 137.639 116.01 137.897 116.183 138.122C116.357 138.348 116.573 138.537 116.819 138.68L123.367 142.466L116.022 146.7C111.924 149.069 108.604 146.557 108.604 141.089C108.604 135.621 111.909 129.275 116.022 126.906L134.303 116.352V129.205L131.601 127.644C131.354 127.502 131.082 127.41 130.8 127.372C130.518 127.335 130.231 127.354 129.956 127.428C129.681 127.501 129.424 127.628 129.198 127.802C128.972 127.975 128.783 128.191 128.641 128.437C128.498 128.684 128.406 128.956 128.369 129.238C128.332 129.52 128.35 129.807 128.424 130.082C128.498 130.357 128.625 130.614 128.798 130.84C128.971 131.066 129.187 131.255 129.434 131.397L134.311 134.207Z" fill="#373A3A"/>
<path d="M134.311 129.203V134.208L129.441 131.395C129.194 131.253 128.978 131.063 128.805 130.838C128.632 130.612 128.505 130.354 128.431 130.079C128.358 129.804 128.339 129.518 128.376 129.236C128.413 128.954 128.505 128.682 128.648 128.435C128.79 128.189 128.979 127.973 129.205 127.799C129.431 127.626 129.689 127.499 129.963 127.425C130.238 127.352 130.525 127.333 130.807 127.37C131.089 127.407 131.361 127.5 131.608 127.642L134.311 129.203Z" fill="white"/>
<path d="M123.367 142.466L116.022 146.7C111.924 149.069 108.604 146.557 108.604 141.089C108.604 135.621 111.909 129.275 116.022 126.906L134.303 116.352" stroke="#373A3A" stroke-width="1.10172" stroke-linecap="round" stroke-linejoin="round"/>
<path d="M138.648 113.848L146.933 109.066" stroke="#373A3A" stroke-width="1.10172" stroke-linecap="round" stroke-linejoin="round"/>
<path d="M151.27 106.563L159.554 101.781" stroke="#373A3A" stroke-width="1.10172" stroke-linecap="round" stroke-linejoin="round"/>
<path d="M163.906 100.816C165.974 101.382 167.344 103.674 167.344 107.188C167.344 110.585 166.04 114.316 164.097 117.239L163.906 117.515" stroke="#373A3A" stroke-width="1.10172" stroke-linecap="round" stroke-linejoin="round"/>
<path d="M159.426 121.645L153.073 125.317" stroke="#373A3A" stroke-width="1.10172" stroke-linecap="round" stroke-linejoin="round"/>
<path d="M146.808 128.93L140.451 132.602" stroke="#373A3A" stroke-width="1.10172" stroke-linecap="round" stroke-linejoin="round"/>
<path d="M134.186 136.215L127.829 139.887" stroke="#373A3A" stroke-width="1.10172" stroke-linecap="round" stroke-linejoin="round"/>
<path d="M138.53 136.509C138.115 139.815 136.643 142.327 134.267 143.696C133.047 144.398 131.663 144.76 130.256 144.747C128.336 144.747 126.261 144.133 124.142 142.91L116.819 138.68C116.573 138.538 116.357 138.348 116.183 138.122C116.01 137.897 115.883 137.639 115.809 137.364C115.736 137.089 115.717 136.803 115.754 136.521C115.791 136.238 115.884 135.966 116.026 135.72C116.168 135.473 116.357 135.257 116.583 135.084C116.809 134.911 117.067 134.784 117.341 134.71C117.616 134.637 117.903 134.618 118.185 134.655C118.467 134.692 118.739 134.784 118.986 134.927L126.309 139.154C126.796 139.437 127.304 139.682 127.829 139.888C129.507 140.542 131.013 140.571 132.1 139.943C133.187 139.315 133.914 137.997 134.186 136.216C134.27 135.66 134.312 135.099 134.311 134.537V111.133C134.311 104.769 129.658 96.7008 124.142 93.5058L114.175 87.7695C113.928 87.6273 113.712 87.4378 113.539 87.212C113.365 86.9861 113.238 86.7283 113.164 86.4533C113.09 86.1783 113.071 85.8914 113.108 85.609C113.145 85.3267 113.238 85.0544 113.38 84.8077C113.522 84.5611 113.712 84.3448 113.937 84.1714C114.163 83.9979 114.421 83.8706 114.696 83.7968C114.971 83.723 115.258 83.704 115.54 83.7411C115.823 83.7781 116.095 83.8704 116.342 84.0127L126.309 89.7673C133.231 93.7592 138.648 103.146 138.648 111.137V134.541C138.649 135.199 138.609 135.856 138.53 136.509Z" stroke="#373A3A" stroke-width="1.10172" stroke-linecap="round" stroke-linejoin="round"/>
<path d="M138.648 131.706L138.931 131.868C139.418 132.151 139.926 132.397 140.451 132.602C142.129 133.252 143.635 133.282 144.722 132.658C145.809 132.033 146.536 130.707 146.808 128.93C146.89 128.374 146.932 127.813 146.933 127.252V103.848C146.933 97.4797 142.276 89.4151 136.76 86.2201L126.793 80.4692C126.295 80.1814 125.931 79.7073 125.782 79.1511C125.632 78.595 125.71 78.0024 125.998 77.5037C126.286 77.0051 126.76 76.6411 127.316 76.492C127.872 76.3429 128.465 76.4209 128.964 76.7087L138.934 82.478C145.857 86.4699 151.273 95.8565 151.273 103.848V127.252C151.275 127.91 151.235 128.567 151.152 129.22C150.741 132.525 149.268 135.041 146.892 136.411C145.673 137.111 144.288 137.474 142.882 137.461C141.384 137.436 139.906 137.113 138.534 136.51" stroke="#373A3A" stroke-width="1.10172" stroke-linecap="round" stroke-linejoin="round"/>
<path d="M134.311 134.208L129.441 131.395C129.194 131.253 128.978 131.063 128.805 130.838C128.632 130.612 128.505 130.354 128.431 130.079C128.358 129.804 128.339 129.518 128.376 129.236C128.413 128.954 128.505 128.682 128.648 128.435C128.79 128.189 128.979 127.973 129.205 127.799C129.431 127.626 129.689 127.499 129.963 127.425C130.238 127.352 130.525 127.333 130.807 127.37C131.089 127.407 131.361 127.5 131.608 127.642L134.311 129.203" stroke="#373A3A" stroke-width="1.10172" stroke-linecap="round" stroke-linejoin="round"/>
<path d="M151.27 124.417L151.556 124.582C152.042 124.865 152.549 125.111 153.073 125.317C154.747 125.97 156.253 125.996 157.34 125.372C158.427 124.747 159.158 123.422 159.426 121.644C159.512 121.089 159.555 120.528 159.555 119.966V96.5581C159.555 90.1939 154.898 82.1293 149.386 78.9306L139.415 73.1797C138.927 72.8869 138.574 72.4143 138.431 71.8636C138.289 71.3129 138.368 70.7282 138.652 70.2353C138.936 69.7424 139.402 69.3807 139.95 69.228C140.498 69.0754 141.084 69.144 141.582 69.4192L151.556 75.1775C158.471 79.184 163.906 88.5707 163.906 96.5581V119.966C163.907 120.624 163.868 121.281 163.789 121.934C163.374 125.239 161.898 127.755 159.525 129.125C158.304 129.826 156.919 130.188 155.511 130.175C154.013 130.151 152.534 129.826 151.163 129.22" stroke="#373A3A" stroke-width="1.10172" stroke-linecap="round" stroke-linejoin="round"/>
<path d="M146.933 126.921L142.059 124.126C141.813 123.984 141.597 123.794 141.424 123.568C141.251 123.342 141.124 123.084 141.05 122.809C140.977 122.534 140.958 122.248 140.996 121.965C141.033 121.683 141.125 121.411 141.268 121.165C141.41 120.918 141.6 120.702 141.826 120.529C142.052 120.356 142.31 120.229 142.585 120.156C142.86 120.082 143.147 120.063 143.429 120.101C143.711 120.138 143.983 120.231 144.23 120.373L146.933 121.934" stroke="#373A3A" stroke-width="1.10172" stroke-linecap="round" stroke-linejoin="round"/>
<path d="M163.906 117.15L164.189 117.315C166.462 118.626 168.57 118.913 169.977 118.105C171.383 117.297 172.18 115.321 172.18 112.692V89.273C172.18 82.9087 167.527 74.8405 162.015 71.6455L152.044 65.8872C151.798 65.7449 151.582 65.5555 151.409 65.3298C151.236 65.104 151.108 64.8464 151.035 64.5715C150.961 64.2966 150.942 64.01 150.979 63.7279C151.017 63.4457 151.109 63.1737 151.251 62.9273C151.393 62.6808 151.583 62.4648 151.809 62.2916C152.034 62.1183 152.292 61.9913 152.567 61.9176C152.842 61.8439 153.128 61.8251 153.411 61.8623C153.693 61.8994 153.965 61.9917 154.211 62.134L164.182 67.8923C171.1 71.8842 176.517 81.2708 176.517 89.2583V112.659C176.517 116.941 174.964 120.194 172.136 121.84C170.916 122.539 169.532 122.902 168.126 122.89C166.628 122.866 165.151 122.541 163.781 121.935" stroke="#373A3A" stroke-width="1.10172" stroke-linecap="round" stroke-linejoin="round"/>
<path d="M159.555 119.637L154.681 116.824C154.435 116.682 154.218 116.492 154.045 116.267C153.871 116.041 153.744 115.783 153.67 115.508C153.597 115.233 153.578 114.946 153.615 114.664C153.652 114.381 153.744 114.109 153.886 113.862C154.028 113.616 154.218 113.4 154.444 113.226C154.67 113.053 154.927 112.925 155.202 112.851C155.477 112.778 155.764 112.759 156.047 112.796C156.329 112.833 156.601 112.925 156.848 113.067L159.555 114.628" stroke="#373A3A" stroke-width="1.10172" stroke-linecap="round" stroke-linejoin="round"/>
<path d="M75.4533 126.906C79.5517 129.274 82.8789 135.624 82.8789 141.089C82.8789 146.553 79.5517 149.069 75.4533 146.704L68.1085 142.466L74.6674 138.683C75.147 138.386 75.492 137.914 75.6295 137.367C75.767 136.82 75.6861 136.241 75.4039 135.752C75.1217 135.264 74.6604 134.904 74.1178 134.75C73.5752 134.596 72.9939 134.659 72.497 134.926L65.1706 139.157C64.6843 139.44 64.1773 139.685 63.6539 139.891L57.297 136.219C57.2127 135.662 57.1709 135.1 57.1721 134.537V134.206L62.0491 131.397C62.5286 131.1 62.8737 130.628 63.0112 130.081C63.1487 129.534 63.0677 128.955 62.7856 128.466C62.5034 127.978 62.0421 127.618 61.4995 127.464C60.9569 127.31 60.3756 127.373 59.8787 127.64L57.1721 129.201V116.348L75.4533 126.906Z" fill="#5F646B"/>
<path d="M78.1084 84.8041C78.3958 85.3034 78.4733 85.8963 78.3239 86.4527C78.1745 87.009 77.8103 87.4833 77.3115 87.7714L67.3446 93.5261C61.836 96.71 57.1721 104.775 57.1721 111.154V134.554C57.1709 135.117 57.2126 135.679 57.297 136.236C57.5687 138.013 58.2922 139.335 59.3829 139.96C60.4736 140.584 61.9756 140.562 63.6539 139.905C64.1772 139.698 64.6842 139.453 65.1706 139.17L72.497 134.94C72.9901 134.7 73.5556 134.656 74.0798 134.816C74.6041 134.977 75.0482 135.33 75.323 135.804C75.5979 136.278 75.683 136.839 75.5614 137.373C75.4398 137.908 75.1204 138.377 74.6674 138.685L67.341 142.912C65.2257 144.135 63.1471 144.749 61.2264 144.749C59.8193 144.762 58.4339 144.401 57.2125 143.702C54.8438 142.332 53.3638 139.817 52.9525 136.511C52.8702 135.857 52.8298 135.199 52.8313 134.539V111.139C52.8313 103.148 58.2555 93.7611 65.1706 89.7655L75.1411 84.0109C75.388 83.868 75.6606 83.7751 75.9434 83.7376C76.2262 83.7001 76.5136 83.7187 76.7892 83.7924C77.0648 83.8661 77.3232 83.9933 77.5495 84.1669C77.7759 84.3405 77.9658 84.5571 78.1084 84.8041Z" fill="white"/>
<path d="M57.3005 136.219L63.6574 139.891C61.9792 140.548 60.4735 140.574 59.3865 139.946C58.2994 139.318 57.5723 137.996 57.3005 136.219Z" fill="#DAE0E5"/>
<path d="M62.8386 128.436C62.9816 128.683 63.0747 128.955 63.1124 129.237C63.1501 129.52 63.1318 129.807 63.0584 130.082C62.9851 130.357 62.8582 130.615 62.685 130.842C62.5118 131.068 62.2957 131.258 62.0491 131.4L57.1721 134.209V129.204L59.8787 127.643C60.125 127.5 60.397 127.408 60.6793 127.37C60.9615 127.333 61.2483 127.352 61.5233 127.425C61.7983 127.499 62.0561 127.626 62.2818 127.8C62.5075 127.973 62.6967 128.19 62.8386 128.436Z" fill="white"/>
<path d="M52.956 136.51C51.5805 137.117 50.0966 137.44 48.5932 137.461C47.186 137.475 45.8005 137.114 44.5793 136.414C42.2106 135.045 40.7306 132.529 40.3193 129.22C40.2383 128.567 40.199 127.91 40.2018 127.252V103.848C40.2018 95.8565 45.6222 86.4735 52.541 82.478L62.5079 76.7197C62.7551 76.5713 63.0293 76.4737 63.3146 76.4324C63.6 76.3912 63.8907 76.4073 64.1697 76.4796C64.4488 76.552 64.7106 76.6792 64.94 76.8539C65.1693 77.0286 65.3616 77.2472 65.5055 77.497C65.6494 77.7468 65.7421 78.0228 65.7782 78.3088C65.8143 78.5948 65.7931 78.8852 65.7157 79.1629C65.6384 79.4406 65.5065 79.7001 65.3277 79.9263C65.1489 80.1525 64.9269 80.3408 64.6746 80.4802L54.7077 86.2348C49.1991 89.4188 44.5389 97.4797 44.5389 103.862V127.266C44.5364 127.828 44.5769 128.389 44.6601 128.945C44.9318 130.726 45.659 132.044 46.746 132.672C47.833 133.3 49.3387 133.267 51.0133 132.617C51.5381 132.409 52.0474 132.163 52.5374 131.883L52.8165 131.717V134.549C52.8214 135.205 52.868 135.86 52.956 136.51Z" fill="white"/>
<path d="M52.8642 70.2311C53.1508 70.7296 53.2282 71.3213 53.0795 71.8767C52.9308 72.4321 52.5682 72.906 52.071 73.1947L42.1004 78.9567C36.5919 82.1406 31.9316 90.2015 31.9316 96.5841V119.992C31.9302 120.554 31.972 121.115 32.0565 121.67C32.3245 123.451 33.0553 124.77 34.1424 125.398C35.2294 126.026 36.7351 125.993 38.4134 125.343C38.9361 125.135 39.443 124.889 39.9301 124.608L40.2128 124.439V127.274C40.2101 127.932 40.2493 128.59 40.3303 129.243C38.9597 129.849 37.481 130.174 35.9822 130.198C34.5761 130.212 33.1917 129.851 31.972 129.151C29.5996 127.759 28.127 125.229 27.712 121.924C27.6328 121.271 27.5936 120.613 27.5945 119.955V96.5584C27.5945 88.571 33.0149 79.188 39.9337 75.1925L49.9006 69.4342C50.3993 69.147 50.9916 69.0695 51.5474 69.219C52.1032 69.3684 52.5768 69.7325 52.8642 70.2311Z" fill="white"/>
<path d="M52.8349 113.844V131.7L52.5558 131.865C52.0666 132.147 51.5572 132.392 51.0318 132.599L44.6786 128.927C44.5954 128.371 44.5549 127.81 44.5574 127.249V126.918L49.427 124.127C49.6737 123.985 49.8899 123.795 50.0633 123.57C50.2368 123.344 50.3641 123.086 50.4379 122.811C50.5117 122.536 50.5307 122.249 50.4936 121.967C50.4566 121.684 50.3643 121.412 50.222 121.165C50.0798 120.919 49.8903 120.702 49.6645 120.529C49.4386 120.355 49.1808 120.228 48.9058 120.154C48.6308 120.081 48.3439 120.062 48.0616 120.099C47.7792 120.136 47.5069 120.228 47.2603 120.37L44.5537 121.924V109.07L52.8349 113.844Z" fill="#5F646B"/>
<path d="M44.6785 128.93L51.0317 132.602C49.3571 133.256 47.8477 133.281 46.7644 132.657C45.681 132.033 44.9502 130.711 44.6785 128.93Z" fill="#DAE0E5"/>
<path d="M50.2202 121.148C50.5077 121.647 50.5857 122.239 50.437 122.794C50.2882 123.35 49.925 123.824 49.427 124.112L44.5537 126.921V121.923L47.2603 120.362C47.7571 120.075 48.3479 119.996 48.9029 120.143C49.4579 120.29 49.9317 120.652 50.2202 121.148Z" fill="white"/>
<path d="M40.2168 106.566V124.417L39.934 124.586C39.4469 124.868 38.94 125.113 38.4173 125.321L32.0678 121.645C31.9851 121.089 31.9434 120.528 31.9429 119.966V119.636L36.8162 116.827C37.3148 116.538 37.6784 116.063 37.8268 115.506C37.9752 114.949 37.8963 114.356 37.6076 113.857C37.4646 113.611 37.2743 113.394 37.0477 113.221C36.8211 113.047 36.5626 112.92 36.2869 112.847C35.7301 112.698 35.1371 112.777 34.6384 113.066L31.9355 114.627V101.773L40.2168 106.566Z" fill="#5F646B"/>
<path d="M32.0676 121.645L38.4245 125.317C36.7462 125.967 35.2406 125.996 34.1535 125.372C33.0665 124.748 32.3284 123.426 32.0676 121.645Z" fill="#DAE0E5"/>
<path d="M37.5981 113.862C37.8857 114.361 37.9636 114.953 37.8149 115.508C37.6662 116.064 37.3029 116.538 36.8049 116.826L31.9316 119.635V114.626L34.6382 113.065C35.1366 112.779 35.728 112.703 36.2829 112.852C36.8378 113.001 37.3108 113.365 37.5981 113.862Z" fill="white"/>
<path d="M27.5945 117.148V117.516C27.5284 117.424 27.466 117.328 27.4036 117.237L27.5945 117.148Z" fill="white"/>
<path d="M27.5946 100.82V117.148L27.4036 117.262C25.4389 114.349 24.1536 110.604 24.1536 107.207C24.1536 103.674 25.527 101.382 27.5946 100.82Z" fill="#5F646B"/>
<path d="M27.5947 117.518V119.96C27.5937 120.618 27.633 121.275 27.7122 121.929C26.3425 122.534 24.8652 122.859 23.3677 122.883C21.9607 122.896 20.5755 122.535 19.3538 121.837C16.5297 120.206 14.9727 116.949 14.9727 112.656V89.2737C14.9727 81.2862 20.3931 71.8996 27.3119 67.9077L37.2824 62.1494C37.5291 62.0071 37.8014 61.9148 38.0837 61.8778C38.3661 61.8408 38.6529 61.8597 38.928 61.9335C39.203 62.0074 39.4608 62.1346 39.6866 62.3081C39.9125 62.4815 40.1019 62.6978 40.2442 62.9445C40.3865 63.1911 40.4788 63.4634 40.5158 63.7458C40.5528 64.0281 40.5339 64.315 40.4601 64.59C40.3862 64.865 40.259 65.1228 40.0855 65.3487C39.912 65.5745 39.6958 65.764 39.4491 65.9062L29.497 71.6646C23.9884 74.8448 19.3244 82.9094 19.3244 89.292V112.696C19.3244 115.322 20.1324 117.294 21.5279 118.106C22.9234 118.917 25.0423 118.631 27.3156 117.316L27.4074 117.265C27.4661 117.338 27.5286 117.434 27.5947 117.518Z" fill="white"/>
<path d="M68.1158 142.466L75.4606 146.704C79.559 149.069 82.8862 146.557 82.8862 141.089C82.8862 135.621 79.5517 129.268 75.4533 126.906L57.1721 116.355" stroke="#373A3A" stroke-width="1.10172" stroke-linecap="round" stroke-linejoin="round"/>
<path d="M52.8349 113.852L44.5537 109.07" stroke="#373A3A" stroke-width="1.10172" stroke-linecap="round" stroke-linejoin="round"/>
<path d="M40.2166 106.566L31.9316 101.781" stroke="#373A3A" stroke-width="1.10172" stroke-linecap="round" stroke-linejoin="round"/>
<path d="M27.5946 100.82C25.527 101.382 24.1536 103.674 24.1536 107.188C24.1536 110.585 25.4352 114.335 27.4036 117.243C27.4661 117.335 27.5285 117.431 27.5946 117.522" stroke="#373A3A" stroke-width="1.10172" stroke-linecap="round" stroke-linejoin="round"/>
<path d="M32.0566 121.645L38.4135 125.317" stroke="#373A3A" stroke-width="1.10172" stroke-linecap="round" stroke-linejoin="round"/>
<path d="M44.6785 128.93L51.0317 132.602" stroke="#373A3A" stroke-width="1.10172" stroke-linecap="round" stroke-linejoin="round"/>
<path d="M57.3005 136.219L63.6574 139.887" stroke="#373A3A" stroke-width="1.10172" stroke-linecap="round" stroke-linejoin="round"/>
<path d="M52.9562 136.509C53.3748 139.815 54.8475 142.33 57.2162 143.7C58.4375 144.399 59.8229 144.76 61.2301 144.747C63.1507 144.747 65.2293 144.133 67.3446 142.91L74.6673 138.684C75.1469 138.387 75.492 137.914 75.6295 137.367C75.7669 136.82 75.686 136.241 75.4038 135.753C75.1216 135.264 74.6604 134.905 74.1178 134.751C73.5752 134.596 72.9938 134.66 72.497 134.927L65.1705 139.157C64.6834 139.438 64.1765 139.684 63.6539 139.892C61.9756 140.542 60.4699 140.575 59.3829 139.947C58.2958 139.319 57.5687 138 57.2969 136.223C57.2126 135.666 57.1709 135.104 57.1721 134.541V111.137C57.1721 104.769 61.8323 96.7044 67.3446 93.5095L77.3115 87.7695C77.5581 87.6273 77.7744 87.4378 77.9478 87.212C78.1213 86.9861 78.2486 86.7283 78.3224 86.4533C78.3962 86.1783 78.4152 85.8914 78.3781 85.609C78.3411 85.3267 78.2488 85.0544 78.1065 84.8077C77.9643 84.5611 77.7748 84.3448 77.549 84.1714C77.3231 83.9979 77.0653 83.8706 76.7903 83.7968C76.5153 83.723 76.2284 83.704 75.9461 83.7411C75.6637 83.7781 75.3914 83.8704 75.1448 84.0127L65.1742 89.7673C58.2591 93.7629 52.835 103.149 52.835 111.141V134.541C52.8336 135.199 52.874 135.857 52.9562 136.509Z" stroke="#373A3A" stroke-width="1.10172" stroke-linecap="round" stroke-linejoin="round"/>
<path d="M52.835 131.705L52.5559 131.871C52.0659 132.151 51.5566 132.397 51.0319 132.605C49.3573 133.255 47.8479 133.285 46.7645 132.66C45.6812 132.036 44.9504 130.714 44.6786 128.933C44.5954 128.377 44.5549 127.816 44.5574 127.254V103.847C44.5574 97.4788 49.214 89.4179 54.7263 86.2192L64.6932 80.4646C64.9455 80.3252 65.1675 80.1369 65.3463 79.9107C65.525 79.6845 65.6569 79.425 65.7343 79.1472C65.8116 78.8695 65.8329 78.5792 65.7968 78.2932C65.7607 78.0071 65.668 77.7312 65.524 77.4814C65.3801 77.2316 65.1879 77.013 64.9585 76.8383C64.7292 76.6636 64.4673 76.5364 64.1883 76.464C63.9092 76.3917 63.6185 76.3756 63.3332 76.4168C63.0479 76.458 62.7736 76.5557 62.5264 76.7041L52.5596 82.4624C45.6408 86.4579 40.2204 95.8409 40.2204 103.832V127.236C40.2176 127.894 40.2568 128.552 40.3379 129.205C40.7565 132.51 42.2292 135.029 44.5978 136.399C45.8122 137.1 47.1911 137.466 48.5934 137.46C50.0919 137.438 51.5705 137.114 52.9415 136.509" stroke="#373A3A" stroke-width="1.10172" stroke-linecap="round" stroke-linejoin="round"/>
<path d="M57.1721 134.208L62.0491 131.398C62.5286 131.101 62.8737 130.629 63.0112 130.082C63.1486 129.535 63.0677 128.956 62.7855 128.467C62.5034 127.979 62.0421 127.62 61.4995 127.465C60.9569 127.311 60.3755 127.374 59.8787 127.641L57.1721 129.202" stroke="#373A3A" stroke-width="1.10172" stroke-linecap="round" stroke-linejoin="round"/>
<path d="M40.2167 124.417L39.934 124.586C39.4469 124.867 38.94 125.113 38.4173 125.32C36.739 125.97 35.2333 126 34.1463 125.376C33.0592 124.751 32.3101 123.429 32.0604 121.648C31.9759 121.093 31.9341 120.532 31.9355 119.97V96.5583C31.9355 90.1941 36.5958 82.1332 42.1043 78.9308L52.0749 73.1762C52.3218 73.0337 52.5382 72.844 52.7118 72.6178C52.8854 72.3917 53.0128 72.1335 53.0866 71.8582C53.1604 71.5828 53.1793 71.2956 53.1421 71.0129C53.1049 70.7303 53.0125 70.4577 52.8699 70.2108C52.7274 69.9638 52.5377 69.7474 52.3115 69.5738C52.0854 69.4002 51.8273 69.2729 51.5519 69.1991C50.9958 69.05 50.4032 69.1279 49.9045 69.4157L39.9376 75.174C33.0189 79.1696 27.5984 88.5525 27.5984 96.54V119.948C27.5975 120.606 27.6367 121.263 27.7159 121.916C28.1272 125.221 29.6035 127.741 31.9796 129.11C33.1993 129.81 34.5837 130.171 35.9898 130.157C37.4885 130.134 38.9673 129.809 40.3379 129.202" stroke="#373A3A" stroke-width="1.10172" stroke-linecap="round" stroke-linejoin="round"/>
<path d="M44.5537 126.924L49.427 124.129C49.6737 123.987 49.8899 123.797 50.0633 123.571C50.2368 123.345 50.3641 123.088 50.4379 122.813C50.5117 122.538 50.5307 122.251 50.4936 121.968C50.4566 121.686 50.3643 121.414 50.222 121.167C50.0798 120.92 49.8903 120.704 49.6645 120.531C49.4386 120.357 49.1808 120.23 48.9058 120.156C48.6308 120.082 48.3439 120.063 48.0616 120.1C47.7792 120.137 47.5069 120.23 47.2603 120.372L44.5537 121.925" stroke="#373A3A" stroke-width="1.10172" stroke-linecap="round" stroke-linejoin="round"/>
<path d="M27.5947 117.15L27.4037 117.263L27.3119 117.315C25.0387 118.63 22.9271 118.912 21.5242 118.104C20.1213 117.296 19.3208 115.321 19.3208 112.695V89.2725C19.3208 82.9082 23.9774 74.8437 29.4933 71.645L39.4601 65.8867C39.9583 65.5994 40.322 65.1259 40.4711 64.5705C40.6202 64.0151 40.5425 63.4231 40.2552 62.9249C39.9679 62.4268 39.4944 62.0631 38.939 61.914C38.3835 61.7649 37.7916 61.8425 37.2934 62.1299L27.3119 67.9065C20.3931 71.8984 14.9727 81.285 14.9727 89.2725V112.677C14.9727 116.955 16.5297 120.212 19.3538 121.858C20.5755 122.556 21.9607 122.917 23.3677 122.904C24.867 122.872 26.3444 122.538 27.7122 121.924" stroke="#373A3A" stroke-width="1.10172" stroke-linecap="round" stroke-linejoin="round"/>
<path d="M31.9316 119.637L36.8049 116.828C37.2927 116.535 37.646 116.063 37.7888 115.512C37.9316 114.961 37.8524 114.377 37.5684 113.884C37.2844 113.391 36.8182 113.029 36.2702 112.876C35.7222 112.724 35.1361 112.792 34.6382 113.068L31.9353 114.628" stroke="#373A3A" stroke-width="1.10172" stroke-linecap="round" stroke-linejoin="round"/>
</g>
<defs>
<clipPath id="clip0_2705_85636">
<rect width="201.629" height="215" fill="white" transform="translate(0.852295)"/>
</clipPath>
</defs>
</svg>
