<svg width="150" height="124" viewBox="0 0 150 124" fill="none" xmlns="http://www.w3.org/2000/svg">
<g clip-path="url(#clip0_3044_35191)">
<path d="M35.2909 77.5984H26.8883L24.3947 71.4348H10.5168L8.18576 77.5984H0L12.4684 46.3984H21.4131L35.2909 77.5984ZM17.1305 53.8166L12.5226 65.9803H22.0636L17.1305 53.8166Z" fill="white"/>
<path d="M65.432 46.3984H72.1541V77.5984H64.402V58.1803L56.0536 67.9439H54.861L46.5126 58.1257V77.5439H38.8147V46.3984H45.5368L55.5115 58.0166L65.432 46.3984Z" fill="white"/>
<path d="M91.724 46.3984C103.054 46.3984 108.909 53.4893 108.909 62.053C108.909 70.9984 103.271 77.5984 90.9108 77.5984H78.063V46.3984H91.724ZM85.8151 71.8712H90.8566C98.6087 71.8712 100.94 66.5803 100.94 61.9984C100.94 56.5984 98.0666 52.1257 90.7482 52.1257H85.8151V71.8712Z" fill="white"/>
<path d="M140.242 53.8182H124.25L114.492 44H150V79.6727L140.242 69.9091V53.8182Z" fill="white"/>
<path d="M124.25 69.9085V55.7812L114.221 65.8722V79.9994H128.262L138.291 69.9085H124.25Z" fill="white"/>
</g>
<defs>
<clipPath id="clip0_3044_35191">
<rect width="150" height="36" fill="white" transform="translate(0 44)"/>
</clipPath>
</defs>
</svg>
