<svg width="176" height="85" viewBox="0 0 176 85" fill="none" xmlns="http://www.w3.org/2000/svg">
<path d="M78.0471 54.9107L67.906 30.7635H74.3177L79.207 43.0782C79.4974 43.791 79.7438 44.4123 79.9497 44.9403C80.1538 45.47 80.3351 45.9646 80.4935 46.424C80.6502 46.8851 80.7945 47.3497 80.9282 47.8214C81.0602 48.2931 81.2116 48.8281 81.3806 49.4248H80.2577C80.4513 48.6433 80.6431 47.9481 80.8367 47.3374C81.0303 46.7284 81.2468 46.0948 81.4879 45.4401C81.729 44.7854 82.0318 43.9969 82.3943 43.0764L87.1023 30.7617H93.4049L83.1899 54.9089H78.0471V54.9107Z" fill="#F5FFFA"/>
<path d="M98.8731 55.2228C97.2556 55.2228 95.8124 54.8145 94.5452 53.9979C93.278 53.1812 92.2696 52.0548 91.5216 50.6169C90.7736 49.1808 90.3987 47.5528 90.3987 45.7364C90.3987 43.9201 90.7736 42.2305 91.5216 40.8032C92.2696 39.3776 93.2956 38.2564 94.5998 37.4398C95.904 36.6232 97.3894 36.2148 99.0544 36.2148C99.9713 36.2148 100.811 36.3416 101.571 36.595C102.331 36.8484 103.002 37.1987 103.581 37.6475C104.16 38.0963 104.655 38.6137 105.067 39.1998C105.477 39.7859 105.778 40.4124 105.971 41.0795L104.776 40.9422V36.595H110.535V54.9131H104.667V50.4972L105.971 50.462C105.778 51.1062 105.464 51.7152 105.03 52.2907C104.595 52.8662 104.063 53.3713 103.435 53.8078C102.807 54.2443 102.106 54.5892 101.334 54.8427C100.561 55.0961 99.739 55.2228 98.8696 55.2228H98.8731ZM100.468 50.5659C101.36 50.5659 102.134 50.3705 102.786 49.9798C103.437 49.5891 103.945 49.0312 104.306 48.306C104.669 47.5809 104.85 46.7256 104.85 45.7364C104.85 44.7473 104.669 43.8902 104.306 43.1668C103.944 42.4417 103.437 41.8785 102.786 41.4772C102.134 41.0742 101.36 40.8736 100.468 40.8736C99.5753 40.8736 98.8432 41.076 98.2043 41.4772C97.5636 41.8803 97.0638 42.4435 96.7012 43.1668C96.3387 43.892 96.1574 44.7491 96.1574 45.7364C96.1574 46.7238 96.3387 47.5827 96.7012 48.306C97.0638 49.0294 97.5636 49.5891 98.2043 49.9798C98.8432 50.3705 99.5982 50.5659 100.468 50.5659Z" fill="#F5FFFA"/>
<path d="M113.471 54.9131V36.595H118.976L119.157 40.3209L117.997 40.7345C118.263 39.9073 118.74 39.154 119.428 38.4747C120.116 37.7971 120.944 37.2497 121.91 36.8361C122.876 36.4225 123.89 36.2148 124.953 36.2148C126.401 36.2148 127.621 36.4964 128.612 37.0596C129.601 37.6228 130.351 38.4624 130.858 39.5782C131.365 40.694 131.618 42.0563 131.618 43.6667V54.9131H125.787V44.1155C125.787 43.3798 125.678 42.7708 125.462 42.2868C125.245 41.8046 124.912 41.442 124.465 41.2009C124.018 40.9598 123.469 40.8507 122.818 40.8736C122.311 40.8736 121.84 40.9492 121.405 41.0971C120.97 41.2467 120.595 41.4649 120.282 41.7518C119.969 42.0404 119.72 42.3678 119.539 42.7356C119.358 43.1035 119.268 43.5065 119.268 43.943V54.9131H113.472H113.471Z" fill="#F5FFFA"/>
<path d="M137.521 32.9713C136.435 32.9713 135.583 32.7249 134.967 32.2304C134.351 31.7358 134.043 31.0283 134.043 30.1096C134.043 29.2824 134.356 28.603 134.985 28.075C135.613 27.547 136.458 27.2812 137.521 27.2812C138.584 27.2812 139.453 27.5294 140.057 28.0222C140.661 28.5168 140.962 29.212 140.962 30.1096C140.962 31.0072 140.654 31.6513 140.038 32.1793C139.422 32.7091 138.582 32.9731 137.521 32.9731V32.9713ZM134.622 54.9115V36.5934H140.418V54.9115H134.622Z" fill="#F5FFFA"/>
<path d="M141.757 54.9118L149.508 44.6317L152.624 48.1851L148.604 54.9118H141.757ZM155.522 54.9118L151.43 49.0123L149.547 46.4938L141.94 36.5938H148.894L152.842 42.2169L154.906 44.908L162.404 54.9118H155.522ZM154.472 46.9426L151.393 43.4243L155.197 36.5938H162.043L154.473 46.9426H154.472Z" fill="#F5FFFA"/>
<g filter="url(#filter0_d_3071_19452)">
<path d="M46.5364 48.7824C46.9564 48.7824 47.2968 48.442 47.2968 48.022C47.2968 47.6021 46.9564 47.2617 46.5364 47.2617C46.1165 47.2617 45.7761 47.6021 45.7761 48.022C45.7761 48.442 46.1165 48.7824 46.5364 48.7824Z" fill="#4DDE95"/>
</g>
<path d="M43.6803 48.6445L62.0318 66.2357L81.5977 71.2113L59.4094 75.884L41.1441 59.1658L23.0671 54.6039L43.6803 48.6445Z" fill="#4DDE95"/>
<path d="M47.4288 45.2376L23.0176 52.3339L8.92529 66.7923L15.9723 45.2394L39.5845 37.7805L52.5733 24.4062L47.4288 45.2376Z" fill="#4DDE95"/>
<path d="M48.5027 50.1861L54.5624 25.4986L49.0888 6.06641L64.23 22.9466L58.8832 47.1219L63.9713 65.0581L48.5027 50.1861Z" fill="#4DDE95"/>
<path fill-rule="evenodd" clip-rule="evenodd" d="M162.251 32.1563C162.251 30.7571 163.386 29.6219 164.785 29.6219C166.185 29.6219 167.32 30.7571 167.32 32.1563C167.32 33.5555 166.185 34.6907 164.785 34.6907C163.386 34.6907 162.251 33.5555 162.251 32.1563ZM164.785 28.9883C163.036 28.9883 161.617 30.4068 161.617 32.1563C161.617 33.9057 163.036 35.3243 164.785 35.3243C166.535 35.3243 167.953 33.9057 167.953 32.1563C167.953 30.4068 166.535 28.9883 164.785 28.9883ZM162.867 31.2358V31.5984H163.427V33.0803H163.867V31.5984H164.426V31.2358H162.869H162.867ZM165.194 31.2358H164.643V33.0785H165.076V31.9398H165.092L165.535 33.0662H165.813L166.257 31.9451H166.273V33.0768H166.706V31.234H166.155L165.687 32.3745H165.665L165.197 31.234L165.194 31.2358Z" fill="#F5FFFA"/>
<defs>
<filter id="filter0_d_3071_19452" x="42.2561" y="43.7417" width="8.56075" height="8.55953" filterUnits="userSpaceOnUse" color-interpolation-filters="sRGB">
<feFlood flood-opacity="0" result="BackgroundImageFix"/>
<feColorMatrix in="SourceAlpha" type="matrix" values="0 0 0 0 0 0 0 0 0 0 0 0 0 0 0 0 0 0 127 0" result="hardAlpha"/>
<feOffset/>
<feGaussianBlur stdDeviation="1.76"/>
<feColorMatrix type="matrix" values="0 0 0 0 0.301961 0 0 0 0 0.870588 0 0 0 0 0.584314 0 0 0 1 0"/>
<feBlend mode="normal" in2="BackgroundImageFix" result="effect1_dropShadow_3071_19452"/>
<feBlend mode="normal" in="SourceGraphic" in2="effect1_dropShadow_3071_19452" result="shape"/>
</filter>
</defs>
</svg>
