<svg width="172" height="215" viewBox="0 0 172 215" fill="none" xmlns="http://www.w3.org/2000/svg">
<g clip-path="url(#clip0_2705_85729)">
<path d="M171.485 115.605V169.629C171.485 171.979 170.71 173.629 169.505 174.398C169.483 174.412 169.463 174.428 169.442 174.444L164.472 177.302C165.69 176.556 166.452 174.883 166.452 172.533V81.7024C166.452 77.3193 163.785 72.2167 160.488 70.3122L45.8342 4.11677C44.3853 3.28174 43.0584 3.20582 42.032 3.74711L47.062 0.839341C48.0918 0.301354 49.4186 0.373966 50.8675 1.2123L165.521 67.4045C168.822 69.3122 171.485 74.4115 171.485 78.8012V115.605Z" fill="#3A3A3A"/>
<path d="M77.5822 66.0679C78.9256 64.3252 79.6979 61.8102 79.6979 58.645C79.6979 54.9946 78.6747 51.0274 76.932 47.2846C74.3312 41.6902 70.1329 36.6073 65.3967 33.8745C57.4985 29.3165 51.0922 33.0098 51.0922 42.1258C51.0922 51.2419 57.4985 62.3383 65.3967 66.8798C70.5653 69.88 75.087 69.3387 77.5822 66.0679ZM166.452 118.51V172.533C166.452 174.883 165.69 176.557 164.472 177.302C164.449 177.327 164.421 177.346 164.39 177.359C163.814 177.683 163.151 177.816 162.495 177.738C161.581 175.495 160.235 173.453 158.534 171.728C156.74 169.942 155.108 168 153.656 165.926C150.075 160.833 149.059 151.77 144.458 149.113C139.933 146.499 133.916 151.647 126.305 147.258C111.211 138.534 114.654 111.229 100.881 103.265C89.3288 96.5912 86.8336 125.289 76.4832 119.312C69.6181 115.351 65.2317 100.73 58.1751 96.6572C51.8612 93.0101 47.8709 99.6277 44.4218 109.803C41.8078 107.45 39.8704 103.202 39.8704 99.4495V8.62542C39.8704 6.22593 40.6658 4.52946 41.9332 3.80004L42.0322 3.74723C43.0587 3.20595 44.3855 3.28186 45.8344 4.11689L160.488 70.3025C163.789 72.2069 166.452 77.3095 166.452 81.6926V118.51ZM155.231 102.238C155.231 96.0268 152.26 88.8977 147.867 83.5442C145.937 81.1219 143.59 79.0641 140.936 77.4679C133.038 72.9099 126.635 76.6032 126.635 85.7193C126.635 93.9508 131.85 103.786 138.675 108.978C139.396 109.529 140.151 110.034 140.936 110.49C148.814 115.058 155.217 111.361 155.217 102.238H155.231ZM117.476 80.4549C117.476 71.3322 111.073 60.2425 103.175 55.6778C101.59 54.7161 99.8315 54.0778 97.9993 53.7998C92.6525 53.1067 88.8602 56.9122 88.8602 63.9324C88.8602 70.682 92.3653 78.5043 97.3854 83.97C99.0631 85.8287 101.01 87.4252 103.161 88.7062C111.06 93.261 117.463 89.5644 117.463 80.445L117.476 80.4549Z" fill="white"/>
<path d="M158.531 171.72C160.232 173.445 161.577 175.487 162.492 177.731C161.781 177.648 161.096 177.413 160.485 177.041L45.8343 110.845C45.3281 110.548 44.8546 110.199 44.4216 109.802C47.8773 99.6433 51.861 93.0092 58.1749 96.6563C65.2315 100.729 69.6179 115.347 76.483 119.311C86.8335 125.288 89.3221 96.5903 100.881 103.264C114.654 111.218 111.211 138.533 126.311 147.25C133.902 151.64 139.929 146.491 144.464 149.105C149.065 151.762 150.075 160.825 153.663 165.918C155.111 167.992 156.74 169.934 158.531 171.72Z" fill="#34CC80"/>
<path d="M147.854 83.543C152.247 88.8964 155.217 96.0256 155.217 102.237C155.217 111.36 148.814 115.056 140.916 110.489C140.127 110.035 139.367 109.533 138.642 108.983L139.675 102.132C140.066 102.429 140.476 102.702 140.903 102.947C145.193 105.429 148.669 103.419 148.669 98.4647C148.669 95.0882 147.052 91.22 144.669 88.3122L147.854 83.543Z" fill="#3A3A3A"/>
<path d="M147.854 83.5421L144.682 88.3113C143.634 86.995 142.358 85.8772 140.916 85.0108C136.625 82.5321 133.147 84.5388 133.147 89.4896C133.147 93.9619 135.982 99.3087 139.688 102.127L138.642 108.983C131.816 103.791 126.602 93.9552 126.602 85.7237C126.602 76.601 133.005 72.9077 140.903 77.4724C143.563 79.0647 145.917 81.1203 147.854 83.5421Z" fill="#DAE0E5"/>
<path d="M144.682 88.3128C147.065 91.2205 148.682 95.0887 148.682 98.4652C148.682 103.416 145.203 105.429 140.916 102.947C140.49 102.702 140.08 102.43 139.688 102.132C135.982 99.3134 133.146 93.9666 133.146 89.4943C133.146 84.5435 136.625 82.5368 140.916 85.0155C142.358 85.8809 143.633 86.9976 144.682 88.3128Z" fill="white"/>
<path d="M103.161 55.6689C111.059 60.2335 117.462 71.3233 117.462 80.446C117.462 89.5687 111.059 93.262 103.161 88.6973C101.01 87.4183 99.0634 85.824 97.3853 83.9676L100.026 78.5812C100.936 79.592 101.993 80.4599 103.161 81.1556C107.452 83.631 110.931 81.6243 110.931 76.6702C110.931 71.7161 107.452 65.6827 103.161 63.2172C102.302 62.6991 101.35 62.3537 100.359 62.2006L97.9991 53.8008C99.8261 54.0774 101.58 54.7123 103.161 55.6689Z" fill="#3A3A3A"/>
<path d="M103.161 63.2142C107.452 65.6896 110.931 71.7131 110.931 76.6672C110.931 81.6213 107.452 83.628 103.161 81.1526C101.993 80.4569 100.936 79.589 100.026 78.5782C97.2995 75.6077 95.405 71.3632 95.405 67.6864C95.405 63.8743 97.4679 61.8082 100.356 62.1844C101.349 62.3412 102.302 62.691 103.161 63.2142Z" fill="white"/>
<path d="M97.999 53.8001L100.356 62.2C97.4544 61.8237 95.4048 63.8899 95.4048 67.702C95.4048 71.3656 97.3092 75.6233 100.026 78.5937L97.3851 83.9802C92.365 78.5145 88.8599 70.6923 88.8599 63.9427C88.8599 56.9092 92.6522 53.1037 97.999 53.8001Z" fill="#DAE0E5"/>
<path d="M79.7109 58.6462C79.7109 61.8114 78.9385 64.3264 77.5952 66.0691L72.0305 58.9069C72.7599 57.963 73.1791 56.5966 73.1791 54.877C73.125 52.7356 72.6118 50.6309 71.6741 48.705L76.9549 47.2891C78.6877 51.0286 79.7109 54.9958 79.7109 58.6462Z" fill="#3A3A3A"/>
<path d="M72.0306 58.9067L77.5821 66.0688C75.0737 69.3396 70.552 69.8809 65.3965 66.9038C57.4984 62.3458 51.092 51.2527 51.092 42.1498C51.092 33.047 57.4984 29.3339 65.3965 33.8985C70.1328 36.6314 74.3311 41.7142 76.9319 47.3086L71.6511 48.7245C70.2384 45.6913 67.9611 42.9321 65.38 41.4468C61.0894 38.9681 57.6106 40.9782 57.6106 45.9257C57.6106 50.8732 61.0894 56.9065 65.38 59.3786C68.1789 60.9992 70.6312 60.6988 71.9811 58.9265L72.0306 58.9067Z" fill="#DAE0E5"/>
<path d="M73.1758 54.8706C73.1758 56.5902 72.7567 57.9566 72.0273 58.9005C70.6608 60.6762 68.2085 60.9733 65.4262 59.3527C61.1355 56.8806 57.6567 50.8538 57.6567 45.8997C57.6567 40.9456 61.119 38.9455 65.4097 41.4209C67.9808 42.9062 70.2582 45.6654 71.6807 48.6986C72.615 50.6252 73.1249 52.73 73.1758 54.8706Z" fill="white"/>
<g style="mix-blend-mode:multiply">
<path d="M39.8704 99.4503C39.8704 103.196 41.8078 107.451 44.4218 109.804C44.8548 110.2 45.3283 110.55 45.8344 110.847L80.6055 130.921V75.6369C80.6532 68.5315 81.452 61.451 82.9885 54.5135L83.5727 51.7873L39.8704 26.5547V99.4503Z" fill="#DAE0E5"/>
</g>
<path d="M162.495 177.738C163.151 177.816 163.814 177.683 164.389 177.359C164.42 177.346 164.449 177.327 164.472 177.302C165.69 176.557 166.452 174.883 166.452 172.533V81.7025C166.452 77.3194 163.785 72.2168 160.488 70.3124L45.8342 4.11689C44.3853 3.28186 43.0584 3.20595 42.032 3.74723" stroke="#3A3A3A" stroke-width="0.99016" stroke-linecap="round" stroke-linejoin="round"/>
<path d="M46.9664 0.894531L41.9364 3.799C40.669 4.52842 39.8735 6.22489 39.8735 8.62438V99.4484C39.8735 103.195 41.8142 107.446 44.425 109.802C44.8579 110.198 45.3314 110.548 45.8376 110.845L160.488 177.041C161.099 177.413 161.784 177.648 162.495 177.73" stroke="#3A3A3A" stroke-width="0.99016" stroke-linecap="round" stroke-linejoin="round"/>
<path d="M44.4216 109.802C47.8773 99.6433 51.861 93.0092 58.175 96.6563C65.2315 100.729 69.6179 115.347 76.483 119.311C86.8335 125.288 89.3221 96.5903 100.881 103.264C114.654 111.218 111.211 138.533 126.311 147.25C133.902 151.64 139.929 146.491 144.464 149.105C149.065 151.762 150.075 160.825 153.663 165.918C155.114 167.993 156.746 169.934 158.541 171.72C160.242 173.445 161.587 175.487 162.501 177.731" stroke="#3A3A3A" stroke-width="0.99016" stroke-linecap="round" stroke-linejoin="round"/>
<path d="M77.5821 66.068C78.9221 64.3253 79.6978 61.8103 79.6978 58.645C79.6978 54.9947 78.6713 51.0274 76.9319 47.2846C74.3311 41.6902 70.1328 36.6074 65.3965 33.8746C57.4984 29.3165 51.092 33.0098 51.092 42.1259C51.092 51.242 57.4984 62.3384 65.3965 66.8799C70.5652 69.8801 75.0836 69.3355 77.5821 66.068Z" stroke="#3A3A3A" stroke-width="0.99016" stroke-linecap="round" stroke-linejoin="round"/>
<path d="M72.0273 58.9008C72.7567 57.9569 73.1759 56.5904 73.1759 54.8708C73.1218 52.7295 72.6086 50.6247 71.6708 48.6989C70.2582 45.6657 67.9808 42.9064 65.3998 41.4212C61.1091 38.9425 57.6304 40.9525 57.6304 45.9C57.6304 50.8475 61.1091 56.8809 65.3998 59.353C68.2086 60.9735 70.651 60.6765 72.0273 58.9008Z" stroke="#3A3A3A" stroke-width="0.99016" stroke-linecap="round" stroke-linejoin="round"/>
<path d="M76.945 47.2852L71.6741 48.7011" stroke="#3A3A3A" stroke-width="0.99016" stroke-linecap="round" stroke-linejoin="round"/>
<path d="M72.0308 58.9062L77.5955 66.0684L77.6021 66.0717" stroke="#3A3A3A" stroke-width="0.99016" stroke-linecap="round" stroke-linejoin="round"/>
<path d="M97.3851 83.9657C99.0628 85.8243 101.01 87.4208 103.161 88.7019C111.059 93.26 117.462 89.5634 117.462 80.4506C117.462 71.3378 111.059 60.2381 103.161 55.6735C101.581 54.7146 99.8264 54.0775 97.999 53.7988C92.6522 53.109 88.8599 56.9112 88.8599 63.9314C88.8599 70.6777 92.3617 78.5033 97.3851 83.9657Z" stroke="#3A3A3A" stroke-width="0.99016" stroke-linecap="round" stroke-linejoin="round"/>
<path d="M100.026 78.5813C100.936 79.5921 101.993 80.46 103.161 81.1557C107.452 83.6311 110.931 81.6243 110.931 76.6702C110.931 71.7161 107.452 65.6828 103.161 63.2173C102.302 62.6991 101.35 62.3538 100.359 62.2007C97.4578 61.8211 95.4082 63.8906 95.4082 67.7027C95.4049 71.3663 97.2994 75.6141 100.026 78.5813Z" stroke="#3A3A3A" stroke-width="0.99016" stroke-linecap="round" stroke-linejoin="round"/>
<path d="M97.3853 83.9685L100.026 78.582" stroke="#3A3A3A" stroke-width="0.99016" stroke-linecap="round" stroke-linejoin="round"/>
<path d="M100.359 62.2L97.999 53.7969" stroke="#3A3A3A" stroke-width="0.99016" stroke-linecap="round" stroke-linejoin="round"/>
<path d="M138.642 108.986C139.363 109.537 140.118 110.042 140.903 110.498C148.801 115.059 155.204 111.363 155.204 102.247C155.204 96.035 152.233 88.9059 147.84 83.5524C145.909 81.1317 143.562 79.0742 140.909 77.4761C133.011 72.9181 126.608 76.6114 126.608 85.7274C126.615 93.959 131.826 103.798 138.642 108.986Z" stroke="#3A3A3A" stroke-width="0.99016" stroke-linecap="round" stroke-linejoin="round"/>
<path d="M139.688 102.131C140.08 102.429 140.49 102.702 140.916 102.947C145.207 105.429 148.682 103.419 148.682 98.4646C148.682 95.0881 147.068 91.2034 144.682 88.3121C143.634 86.9958 142.358 85.878 140.916 85.0116C136.625 82.5329 133.146 84.5396 133.146 89.4904C133.146 93.966 135.975 99.3227 139.688 102.131Z" stroke="#3A3A3A" stroke-width="0.99016" stroke-linecap="round" stroke-linejoin="round"/>
<path d="M139.688 102.133L138.655 108.985" stroke="#3A3A3A" stroke-width="0.99016" stroke-linecap="round" stroke-linejoin="round"/>
<path d="M144.682 88.3122L147.854 83.543" stroke="#3A3A3A" stroke-width="0.99016" stroke-linecap="round" stroke-linejoin="round"/>
<path d="M133.146 119.148L147.854 127.641" stroke="#3A3A3A" stroke-width="0.99016" stroke-linecap="round" stroke-linejoin="round"/>
<path d="M133.146 126.152L147.854 134.645" stroke="#3A3A3A" stroke-width="0.99016" stroke-linecap="round" stroke-linejoin="round"/>
<path d="M164.472 177.302L169.442 174.444C169.463 174.428 169.484 174.412 169.505 174.398C170.71 173.629 171.486 171.979 171.486 169.629V78.8012C171.486 74.4115 168.819 69.3122 165.521 67.4045L50.8675 1.2123C49.4186 0.373966 48.0918 0.301354 47.062 0.839341" stroke="#3A3A3A" stroke-width="0.99016" stroke-linecap="round" stroke-linejoin="round"/>
<path d="M33.5133 147.071C34.9805 140.288 35.7426 133.372 35.7874 126.433V121.512C51.4418 131.011 62.2345 148.385 61.5315 166.93L32.8169 150.345L33.5133 147.071Z" fill="#DAE0E5"/>
<path d="M61.5483 166.932L94.8143 186.151L95.5041 182.851C96.974 176.068 97.7372 169.152 97.7815 162.213V105.539C97.8297 98.4338 98.6273 91.3535 100.161 84.4157L100.745 81.6927L38.7548 45.8984L38.1673 48.6214C36.6334 55.5592 35.8358 62.6396 35.7876 69.7448V121.514C51.442 131.013 62.2348 148.387 61.5483 166.932Z" fill="white"/>
<path d="M94.8143 186.152L32.8237 150.348L33.5135 147.074C34.9808 140.291 35.7428 133.375 35.7876 126.435V69.7487C35.8358 62.6435 36.6334 55.5631 38.1673 48.6253L38.7548 45.9023L100.745 81.69L100.161 84.413C98.6273 91.3508 97.8297 98.4311 97.7815 105.536V162.226C97.7363 169.162 96.9731 176.073 95.5041 182.851L94.8143 186.152Z" stroke="#3A3A3A" stroke-width="0.99016" stroke-linecap="round" stroke-linejoin="round"/>
<path d="M47.4019 99.5232L47.3095 100.375L47.9894 100.764V101.576L47.2171 101.134L47.1148 102.009L46.3755 101.583L46.4778 100.705L45.8177 100.319L45.7121 101.197L44.9727 100.767L45.0784 99.8929L44.3918 99.4968V98.6882L45.1642 99.1337L45.2566 98.2822L44.5734 97.8861V97.0775L45.3424 97.5231L45.448 96.6484L46.1873 97.0742L46.085 97.9488L46.7451 98.335L46.8474 97.4604L47.5868 97.8861L47.4844 98.7641L48.171 99.1601V99.9688L47.4019 99.5232ZM46.6626 99.0974L46.0025 98.7113L45.9101 99.5595L46.5702 99.9457L46.6626 99.0974Z" fill="#3A3A3A"/>
<path d="M52.7785 102.977L53.729 103.525V105.347C53.4801 105.399 53.2224 105.393 52.9765 105.327C52.6791 105.255 52.3942 105.138 52.1316 104.981C51.7215 104.742 51.3562 104.434 51.0523 104.07C50.7382 103.696 50.4854 103.275 50.3031 102.822C50.1278 102.398 50.0359 101.944 50.0324 101.486C50.0103 101.124 50.1052 100.765 50.3031 100.462C50.3894 100.343 50.5032 100.247 50.6348 100.181C50.7664 100.116 50.9119 100.083 51.0589 100.086C51.4465 100.094 51.8245 100.208 52.1514 100.416C52.5068 100.62 52.8294 100.876 53.1085 101.175C53.39 101.47 53.6279 101.803 53.8149 102.165L53.1316 102.496C52.9238 102.076 52.6039 101.722 52.2075 101.472C52.098 101.385 51.9671 101.329 51.8284 101.309C51.6897 101.289 51.5482 101.307 51.4187 101.36C51.2173 101.472 51.1183 101.72 51.1183 102.099C51.12 102.349 51.1658 102.596 51.2536 102.829C51.3449 103.068 51.4742 103.291 51.6365 103.489C51.7913 103.683 51.9804 103.848 52.1943 103.974C52.3713 104.083 52.5714 104.149 52.7785 104.166V102.977Z" fill="#3A3A3A"/>
<path d="M57.3597 106.518L55.2176 105.287C55.261 105.487 55.3477 105.675 55.4718 105.838C55.5988 106.006 55.7582 106.146 55.9404 106.251C56.0529 106.32 56.177 106.368 56.3068 106.393C56.419 106.408 56.5332 106.392 56.6368 106.347L57.1814 107.314C56.8954 107.516 56.4762 107.459 55.9239 107.142C55.5816 106.944 55.2748 106.689 55.0163 106.39C54.761 106.096 54.5568 105.761 54.4123 105.399C54.2728 105.073 54.1998 104.721 54.1977 104.366C54.1807 104.091 54.2537 103.818 54.4057 103.587C54.4717 103.496 54.5586 103.422 54.6591 103.372C54.7596 103.321 54.8708 103.296 54.9833 103.297C55.2789 103.302 55.5673 103.39 55.815 103.551C56.1169 103.724 56.3871 103.947 56.6137 104.211C56.8543 104.49 57.0472 104.807 57.1847 105.149C57.322 105.487 57.3926 105.849 57.3927 106.215C57.3927 106.215 57.3696 106.337 57.3597 106.518ZM55.4057 104.337C55.3471 104.365 55.2971 104.409 55.2612 104.464C55.2252 104.518 55.2045 104.582 55.2011 104.647L56.4091 105.343C56.3804 105.149 56.3106 104.964 56.2045 104.799C56.1052 104.638 55.9681 104.504 55.8051 104.409C55.7486 104.367 55.6831 104.339 55.6139 104.326C55.5446 104.314 55.4734 104.317 55.4057 104.337Z" fill="#3A3A3A"/>
<path d="M60.657 106.738C60.8823 107.141 60.9962 107.597 60.9871 108.058V110.006L59.954 109.408V107.656C59.972 107.465 59.9365 107.272 59.8514 107.1C59.7663 106.928 59.6349 106.784 59.4721 106.682C59.2939 106.58 59.1421 106.563 59.0431 106.636C58.944 106.708 58.8846 106.877 58.8846 107.144V108.794L57.8516 108.197V104.801L58.8417 105.368V105.741C58.9656 105.667 59.1117 105.639 59.2543 105.662C59.4395 105.689 59.6171 105.754 59.7758 105.854C60.1419 106.066 60.4457 106.371 60.657 106.738Z" fill="#3A3A3A"/>
<path d="M64.6769 110.743L62.5349 109.508C62.579 109.708 62.6656 109.896 62.789 110.059C62.9161 110.227 63.0754 110.367 63.2577 110.472C63.3701 110.541 63.4943 110.589 63.6241 110.614C63.7308 110.626 63.8389 110.61 63.9376 110.568L64.4822 111.535C64.1939 111.737 63.7748 111.68 63.2247 111.363C62.5457 110.966 62.014 110.359 61.7098 109.634C61.5721 109.306 61.4993 108.956 61.4952 108.601C61.4796 108.324 61.5537 108.05 61.7064 107.818C61.7732 107.728 61.8603 107.655 61.9607 107.605C62.0611 107.556 62.1719 107.53 62.284 107.531C62.5797 107.536 62.868 107.624 63.1158 107.785C63.4177 107.958 63.6878 108.182 63.9145 108.446C64.1552 108.724 64.3471 109.041 64.4822 109.383C64.6221 109.721 64.6939 110.083 64.6934 110.449C64.6934 110.449 64.6868 110.568 64.6769 110.743ZM62.7296 108.561C62.6709 108.59 62.621 108.634 62.585 108.688C62.5491 108.743 62.5283 108.806 62.525 108.871L63.7198 109.578C63.691 109.384 63.6213 109.198 63.5151 109.033C63.4158 108.873 63.2787 108.739 63.1158 108.644C63.0616 108.602 62.9988 108.573 62.932 108.559C62.8652 108.544 62.7961 108.545 62.7296 108.561Z" fill="#3A3A3A"/>
<path d="M66.5649 109.909C66.7711 109.942 66.9686 110.016 67.1458 110.126V111.199C67.0501 111.133 66.9742 111.084 66.9115 111.047C66.6904 110.919 66.5154 110.889 66.3933 110.955C66.2712 111.021 66.2052 111.196 66.2052 111.48V113.044L65.1721 112.447V109.027L66.1623 109.595V110.004C66.2184 109.96 66.2835 109.929 66.3531 109.912C66.4226 109.895 66.4949 109.894 66.5649 109.909Z" fill="#3A3A3A"/>
<path d="M69.9216 112.1C70.1882 112.52 70.3269 113.008 70.321 113.506V115.397L69.3606 114.839V114.4C69.212 114.644 68.9216 114.644 68.4892 114.4C68.2674 114.274 68.0679 114.112 67.8984 113.921C67.739 113.746 67.6106 113.546 67.5189 113.327C67.4356 113.134 67.3919 112.927 67.3901 112.717C67.3901 112.387 67.4991 112.208 67.7202 112.152C67.9413 112.096 68.2615 112.202 68.7103 112.459L69.2978 112.789C69.2831 112.597 69.2176 112.413 69.108 112.254C68.9983 112.096 68.8486 111.97 68.674 111.888C68.5398 111.812 68.3953 111.755 68.245 111.72C68.124 111.687 67.9963 111.687 67.8753 111.72L67.5255 110.71C67.7257 110.68 67.9303 110.697 68.1229 110.76C68.3689 110.831 68.6051 110.933 68.8259 111.063C69.269 111.316 69.6448 111.671 69.9216 112.1ZM69.08 113.888C69.1262 113.88 69.169 113.858 69.2034 113.826C69.2379 113.794 69.2626 113.752 69.2747 113.707V113.413L68.8292 113.156C68.5288 112.981 68.3803 113.011 68.3803 113.238C68.3818 113.35 68.4176 113.458 68.4826 113.549C68.5553 113.655 68.6513 113.743 68.7632 113.806C68.856 113.869 68.968 113.899 69.08 113.888Z" fill="#3A3A3A"/>
<path d="M70.9612 111.113L71.9943 111.711V116.368L70.9612 115.774V111.113Z" fill="#3A3A3A"/>
<path d="M75.1034 114.756L73.9351 114.096V113.105L77.3412 115.086V116.076L76.1794 115.416V118.822L75.1034 118.162V114.756Z" fill="#3A3A3A"/>
<path d="M77.7439 115.297L79.5427 116.337C79.9605 116.576 80.3353 116.884 80.6517 117.247C80.9677 117.602 81.222 118.007 81.4042 118.446C81.5788 118.864 81.6686 119.313 81.6682 119.766C81.6943 120.121 81.6014 120.475 81.4042 120.772C81.3158 120.885 81.2008 120.975 81.0695 121.032C80.9381 121.09 80.7946 121.114 80.6517 121.103C80.2571 121.073 79.8761 120.946 79.5427 120.733L77.7439 119.693V115.297ZM79.4998 119.713C79.6095 119.798 79.7387 119.855 79.8759 119.878C80.013 119.901 80.1537 119.89 80.2853 119.845C80.4833 119.746 80.5824 119.508 80.5824 119.132C80.5835 118.759 80.4807 118.393 80.2853 118.076C80.0941 117.755 79.8236 117.489 79.4998 117.304L78.8199 116.911V119.32L79.4998 119.713Z" fill="#3A3A3A"/>
<path d="M84.7309 122.87L83.1202 121.939L82.8232 122.619L81.7241 121.985L83.4041 118.562L84.4636 119.173L86.1633 124.54L85.0412 123.896L84.7309 122.87ZM84.4009 121.771L83.9124 120.081L83.4239 121.206L84.4009 121.771Z" fill="#3A3A3A"/>
<path d="M47.2931 110.324L45.557 110.03L47.2931 111.739V112.657L44.613 109.967V109L47.2931 109.406V110.324Z" fill="#3A3A3A"/>
<path d="M49.4517 112.219L51.0359 113.133V114.051L49.4517 113.133V112.219Z" fill="#3A3A3A"/>
<path d="M54.0726 113.732L52.9009 113.072V112.082L56.3103 114.062V115.053L55.1485 114.392V117.762L54.0726 117.142V113.732Z" fill="#3A3A3A"/>
<path d="M59.7592 119.482V120.443L56.7029 118.68V114.277L59.6734 116V116.961L57.7789 115.852V116.591L59.4687 117.581V118.492L57.7789 117.502V118.304L59.7592 119.482Z" fill="#3A3A3A"/>
<path d="M62.7296 122.146L61.9408 120.327L61.1619 121.241L59.9341 120.532L61.3203 119.109L60.0001 116.172L61.2147 116.872L61.9738 118.578L62.7263 117.743L63.8881 118.403L62.5679 119.76L63.9805 122.846L62.7296 122.146Z" fill="#3A3A3A"/>
<path d="M64.9872 120.038L63.8188 119.361V118.371L67.225 120.351V121.342L66.0632 120.681V124.068L64.9872 123.441V120.038Z" fill="#3A3A3A"/>
<path d="M67.6277 120.578L69.4265 121.618C69.8443 121.858 70.2191 122.165 70.5355 122.529C70.8515 122.883 71.1058 123.288 71.288 123.727C71.461 124.146 71.5507 124.594 71.552 125.047C71.5756 125.403 71.483 125.758 71.288 126.057C71.1992 126.169 71.0841 126.258 70.9529 126.316C70.8217 126.373 70.6783 126.398 70.5355 126.387C70.1409 126.357 69.7599 126.23 69.4265 126.017L67.6277 124.978V120.578ZM69.3836 124.994C69.4929 125.08 69.6221 125.138 69.7594 125.161C69.8967 125.184 70.0376 125.172 70.1691 125.126C70.3671 125.027 70.4661 124.79 70.4661 124.413C70.4673 124.041 70.3645 123.675 70.1691 123.357C69.9779 123.037 69.7073 122.771 69.3836 122.585L68.7037 122.192V124.601L69.3836 124.994Z" fill="#3A3A3A"/>
<path d="M72.9612 127.838C72.6436 127.465 72.3883 127.042 72.2054 126.587C72.0288 126.169 71.9347 125.721 71.9281 125.267C71.907 124.907 72.0044 124.55 72.2054 124.251C72.293 124.133 72.407 124.037 72.5382 123.971C72.6695 123.905 72.8143 123.871 72.9612 123.871C73.3457 123.878 73.7207 123.993 74.0438 124.201C74.457 124.442 74.8245 124.754 75.1297 125.122C75.4457 125.497 75.7007 125.919 75.8855 126.373C76.0598 126.792 76.1528 127.24 76.1594 127.693C76.1808 128.052 76.0846 128.407 75.8855 128.706C75.7982 128.825 75.6843 128.921 75.553 128.987C75.4217 129.053 75.2766 129.087 75.1297 129.086C74.7437 129.081 74.367 128.967 74.0438 128.756C73.6313 128.517 73.2647 128.206 72.9612 127.838ZM74.5653 127.875C74.6403 127.868 74.7127 127.844 74.7768 127.804C74.8409 127.765 74.895 127.711 74.9349 127.647C75.0352 127.472 75.0822 127.271 75.0702 127.069C75.0705 126.818 75.0247 126.568 74.9349 126.333C74.8477 126.095 74.7229 125.872 74.5653 125.673C74.4214 125.489 74.2445 125.334 74.0438 125.214C73.8889 125.114 73.7066 125.064 73.5223 125.072C73.4469 125.078 73.3741 125.102 73.3097 125.141C73.2454 125.181 73.1915 125.235 73.1526 125.3C73.052 125.475 73.005 125.676 73.0173 125.878C73.017 126.129 73.0629 126.379 73.1526 126.614C73.2395 126.852 73.3643 127.075 73.5223 127.274C73.6653 127.459 73.8423 127.614 74.0438 127.733C74.1969 127.832 74.3766 127.881 74.5587 127.875H74.5653Z" fill="#3A3A3A"/>
<path d="M77.5427 130.49C77.2277 130.118 76.9747 129.698 76.7935 129.246C76.6202 128.827 76.5283 128.379 76.5228 127.926C76.5002 127.563 76.5951 127.203 76.7935 126.899C76.8795 126.781 76.9922 126.685 77.1225 126.619C77.2527 126.553 77.3967 126.519 77.5427 126.52C77.924 126.528 78.2955 126.642 78.6154 126.85C78.9643 127.054 79.2813 127.309 79.556 127.605C79.8354 127.911 80.0699 128.254 80.2524 128.625L79.5659 128.955C79.3749 128.53 79.0626 128.171 78.6682 127.922C78.505 127.814 78.3128 127.758 78.117 127.761C78.0406 127.764 77.9662 127.786 77.9005 127.825C77.8349 127.865 77.78 127.919 77.7407 127.985C77.6444 128.163 77.5987 128.364 77.6087 128.566C77.6108 128.816 77.6555 129.064 77.7407 129.299C77.8283 129.538 77.9555 129.761 78.117 129.959C78.2705 130.149 78.4572 130.31 78.6682 130.434C78.7966 130.534 78.9545 130.588 79.117 130.588C79.2795 130.588 79.4375 130.534 79.5659 130.434L80.2524 131.546C80.1567 131.627 80.0457 131.688 79.9261 131.725C79.8064 131.761 79.6805 131.774 79.556 131.761C79.2215 131.723 78.8999 131.61 78.6154 131.431C78.205 131.183 77.8418 130.865 77.5427 130.49Z" fill="#3A3A3A"/>
<path d="M82.4405 133.418C82.3186 132.852 82.2567 132.275 82.2557 131.696C82.2483 131.186 82.3105 130.677 82.4405 130.184C82.5312 129.808 82.7086 129.459 82.9587 129.164L83.9489 129.735C83.7119 130.081 83.5366 130.465 83.4307 130.87C83.3165 131.331 83.2622 131.805 83.269 132.28C83.2693 132.816 83.3235 133.351 83.4307 133.877C83.5548 134.468 83.7281 135.048 83.9489 135.61L82.9587 135.039C82.7285 134.519 82.5548 133.976 82.4405 133.418Z" fill="#3A3A3A"/>
<path d="M83.9258 135.598C84.1612 135.251 84.3353 134.867 84.4407 134.462C84.556 134.001 84.6115 133.528 84.6057 133.053C84.6042 132.516 84.5489 131.981 84.4407 131.455C84.3162 130.865 84.144 130.285 83.9258 129.723L84.9159 130.294C85.3754 131.349 85.6136 132.486 85.6157 133.637C85.6241 134.147 85.563 134.655 85.4341 135.149C85.3421 135.524 85.1648 135.873 84.9159 136.169L83.9258 135.598Z" fill="#3A3A3A"/>
<path d="M25.1036 187.037C14.0105 180.627 4.64031 166.709 1.56752 153.272C0.887227 150.372 0.534067 147.405 0.514648 144.427C0.514648 136.578 3.27059 131.066 7.72301 128.502L7.98375 128.35C12.4164 125.944 18.4596 126.37 25.1168 130.221C38.7018 138.067 49.719 157.147 49.719 172.834C49.7447 175.234 49.4438 177.626 48.8245 179.944C47.7156 183.904 45.6296 186.835 42.8407 188.568L42.7813 188.601C38.3057 191.347 32.0512 191.04 25.1036 187.037ZM25.1036 181.043C32.3648 185.235 38.6754 184.294 42.0056 179.416C43.6064 177.086 44.5174 173.848 44.5174 169.844C44.5174 157.464 35.8237 142.41 25.1036 136.222C21.6282 134.218 18.3672 133.39 15.5321 133.614C9.65052 134.066 5.67998 139.067 5.67998 147.427C5.70639 159.804 14.3967 174.858 25.1036 181.043Z" fill="#DAE0E5"/>
<path d="M15.0798 124.251L7.98364 128.347C12.4163 125.941 18.4595 126.367 25.1167 130.218C38.7017 138.064 49.7189 157.144 49.7189 172.832C49.7446 175.231 49.4437 177.623 48.8244 179.941C47.7155 183.902 45.6295 186.832 42.8406 188.565L49.8575 184.499C49.8824 184.486 49.9067 184.472 49.9301 184.456L50.4549 184.43C50.4186 184.383 50.379 184.337 50.346 184.291C49.7505 183.5 49.4287 182.536 49.4293 181.546C49.4299 180.555 49.7528 179.592 50.3492 178.801C50.9457 178.011 51.7832 177.436 52.7353 177.163C53.6874 176.891 54.7024 176.935 55.6268 177.291C56.4463 175.016 56.9105 172.63 57.0032 170.214C57.0362 169.68 57.0461 169.128 57.0461 168.564C57.0461 156.824 50.8873 143.193 42.0914 133.783C39.278 130.714 36.0272 128.077 32.4439 125.957C25.6778 122.05 19.5289 121.683 15.0798 124.251Z" fill="#3A3A3A"/>
<path d="M49.6497 180.183C49.4295 180.877 49.379 181.613 49.5024 182.33C49.6259 183.048 49.9198 183.725 50.3593 184.305C50.3923 184.351 50.4319 184.398 50.4682 184.444C50.5837 184.579 50.7092 184.711 50.8379 184.84L52.9832 186.903C52.6139 185.921 52.5657 184.848 52.8456 183.838C53.1254 182.827 53.7189 181.932 54.5404 181.28C55.3619 180.629 56.369 180.255 57.4166 180.212C58.4643 180.17 59.4984 180.461 60.3698 181.044L60.4325 180.975L56.9208 178.047C56.3445 177.573 55.6606 177.246 54.929 177.096C54.1974 176.947 53.4403 176.979 52.7239 177.19C52.0075 177.4 51.3536 177.783 50.8194 178.305C50.2852 178.827 49.887 179.472 49.6596 180.183H49.6497Z" fill="white"/>
<path d="M54.2903 181.492C53.5525 182.158 53.032 183.03 52.7965 183.996C52.5611 184.961 52.6215 185.975 52.9701 186.905L79.9289 212.831C80.5118 213.389 81.2011 213.823 81.9557 214.109C82.7102 214.394 83.5145 214.524 84.3206 214.492C85.1266 214.46 85.918 214.266 86.6474 213.921C87.3767 213.577 88.0292 213.089 88.5659 212.486C89.1026 211.884 89.5124 211.18 89.771 210.416C90.0296 209.651 90.1316 208.843 90.071 208.039C90.0103 207.234 89.7883 206.45 89.418 205.733C89.0478 205.017 88.537 204.382 87.9161 203.867L60.4194 180.978L60.3567 181.047C59.4401 180.436 58.3458 180.147 57.247 180.228C56.1482 180.309 55.1077 180.754 54.2903 181.492Z" fill="#3A3A3A"/>
<path d="M42.7813 188.599C38.3058 191.345 32.0512 191.038 25.1036 187.035C14.0105 180.625 4.64031 166.707 1.56752 153.271C0.887227 150.371 0.534067 147.404 0.514648 144.425C0.514648 136.576 3.27059 131.065 7.72301 128.5" stroke="#3A3A3A" stroke-width="0.99016" stroke-linecap="round" stroke-linejoin="round"/>
<path d="M7.98364 128.35C12.4163 125.944 18.4595 126.37 25.1167 130.221C38.7017 138.067 49.7189 157.147 49.7189 172.834C49.7446 175.234 49.4437 177.626 48.8244 179.944C47.7155 183.904 45.6295 186.835 42.8406 188.568" stroke="#3A3A3A" stroke-width="0.99016" stroke-linecap="round" stroke-linejoin="round"/>
<path d="M15.5584 133.606C18.3804 133.382 21.6413 134.21 25.13 136.213C35.8501 142.402 44.5437 157.456 44.5437 169.836C44.5437 173.846 43.6327 177.097 42.032 179.408C38.6885 184.292 32.3647 185.233 25.1035 181.041C14.3834 174.856 5.69312 159.802 5.69312 147.419C5.70632 139.059 9.67686 134.058 15.5584 133.606Z" stroke="#3A3A3A" stroke-width="0.99016" stroke-linecap="round" stroke-linejoin="round"/>
<path d="M7.7229 128.501L15.0798 124.253C19.5289 121.686 25.6778 122.052 32.4703 125.98C36.0536 128.099 39.3044 130.736 42.1178 133.805C50.9137 143.215 57.0725 156.846 57.0725 168.586C57.0725 169.141 57.0725 169.692 57.0296 170.236C56.9369 172.652 56.4727 175.039 55.6532 177.313" stroke="#3A3A3A" stroke-width="0.99016" stroke-linecap="round" stroke-linejoin="round"/>
<path d="M49.9435 184.473C49.9201 184.488 49.8958 184.502 49.8709 184.516L42.5107 188.76" stroke="#3A3A3A" stroke-width="0.99016" stroke-linecap="round" stroke-linejoin="round"/>
<path d="M52.9831 186.902L79.9419 212.828C80.5248 213.385 81.2142 213.82 81.9687 214.105C82.7232 214.391 83.5275 214.521 84.3336 214.489C85.1397 214.457 85.931 214.263 86.6604 213.918C87.3898 213.573 88.0423 213.085 88.5789 212.483C89.1156 211.881 89.5254 211.176 89.784 210.412C90.0426 209.648 90.1446 208.84 90.084 208.035C90.0233 207.231 89.8013 206.447 89.4311 205.73C89.0608 205.013 88.5501 204.378 87.9292 203.863L56.9042 178.047C56.0434 177.321 54.9451 176.94 53.8201 176.975C52.695 177.01 51.6227 177.46 50.809 178.237C49.9953 179.015 49.4976 180.066 49.4116 181.188C49.3255 182.311 49.6571 183.425 50.3427 184.318C50.3757 184.364 50.4153 184.41 50.4516 184.456C50.5671 184.592 50.6925 184.724 50.8213 184.852L52.9831 186.902Z" stroke="#3A3A3A" stroke-width="0.99016" stroke-linecap="round" stroke-linejoin="round"/>
<path d="M60.3698 181.043C59.4984 180.46 58.4643 180.169 57.4167 180.211C56.369 180.253 55.3619 180.627 54.5404 181.279C53.7189 181.93 53.1254 182.826 52.8456 183.836C52.5658 184.847 52.614 185.92 52.9832 186.902" stroke="#3A3A3A" stroke-width="0.99016" stroke-linecap="round" stroke-linejoin="round"/>
<path d="M56.7094 89.5291L46.3457 83.5452V71.5742L56.7094 77.5581V89.5291Z" fill="white"/>
<path d="M76.0277 86.2656L83.3285 98.91L76.0277 103.121L68.7302 90.4804L76.0277 86.2656Z" fill="white"/>
<path d="M83.3285 98.91L76.0277 103.121L68.7302 90.4804L76.0277 86.2656L83.3285 98.91Z" fill="#34CC80"/>
<path d="M56.7094 77.5581V89.5291L46.3457 83.5452V71.5742L56.7094 77.5581Z" fill="#DAE0E5"/>
<path d="M56.7094 89.5291L46.3457 83.5452V71.5742L56.7094 77.5581V89.5291Z" stroke="#3A3A3A" stroke-width="0.99016" stroke-linecap="round" stroke-linejoin="round"/>
<path d="M83.3285 98.91L76.0277 103.121L68.7302 90.4804L76.0277 86.2656L83.3285 98.91Z" stroke="#3A3A3A" stroke-width="0.99016" stroke-linecap="round" stroke-linejoin="round"/>
<path d="M66.3801 89.1243L59.0728 84.9062" stroke="#3A3A3A" stroke-width="0.99016" stroke-linecap="round" stroke-linejoin="round"/>
<path d="M65.3406 87.3242L66.3802 89.1263L65.3406 89.727" stroke="#3A3A3A" stroke-width="0.99016" stroke-linecap="round" stroke-linejoin="round"/>
<path d="M52.518 82.5493L50.5178 81.3908L50.135 82.2391L49.1118 81.6483L51.036 77.7734L52.0262 78.3444L53.957 84.4405L52.9008 83.8365L52.518 82.5493ZM52.2044 81.4898L51.5179 79.1795L50.8479 80.701L52.2044 81.4898Z" fill="#3A3A3A"/>
<path d="M77.5821 95.3119C77.4648 95.0025 77.2988 94.7139 77.0903 94.457C76.8961 94.2157 76.6602 94.0111 76.3939 93.853C76.044 93.6517 75.7701 93.622 75.572 93.7606V92.2259L74.7766 91.7539V96.1139L75.5357 96.5529V96.1865C75.7236 96.5688 76.0227 96.8852 76.3939 97.0942C76.6009 97.2289 76.8433 97.299 77.0903 97.2955C77.1867 97.2926 77.2812 97.2676 77.3665 97.2223C77.4518 97.1771 77.5255 97.113 77.5821 97.0348C77.7136 96.8067 77.7755 96.5451 77.7603 96.2822C77.7616 95.9505 77.7012 95.6215 77.5821 95.3119ZM76.7602 96.3284C76.6804 96.3681 76.591 96.3844 76.5023 96.3757C76.4136 96.3669 76.3291 96.3334 76.2586 96.2789C76.0457 96.1527 75.872 95.9699 75.7569 95.7508C75.6272 95.5214 75.56 95.2619 75.5621 94.9983C75.5481 94.9015 75.5585 94.8028 75.5926 94.7111C75.6266 94.6194 75.6831 94.5377 75.7569 94.4735C75.8368 94.4336 75.9265 94.4173 76.0154 94.4267C76.1043 94.4361 76.1887 94.4706 76.2586 94.5264C76.4699 94.6545 76.6431 94.8368 76.7602 95.0544C76.888 95.2835 76.955 95.5414 76.955 95.8037C76.969 95.9004 76.9586 95.9992 76.9245 96.0909C76.8905 96.1826 76.834 96.2643 76.7602 96.3284Z" fill="#3A3A3A"/>
</g>
<defs>
<clipPath id="clip0_2705_85729">
<rect width="171.961" height="215" fill="white" transform="translate(0.0195312)"/>
</clipPath>
</defs>
</svg>
