<svg width="25" height="24" viewBox="0 0 25 24" fill="none" xmlns="http://www.w3.org/2000/svg">
<rect x="0.5" width="24" height="24" rx="12" fill="#34CC80" fill-opacity="0.3"/>
<path d="M18.0554 8.68049C18.0281 8.61302 17.9849 8.55318 17.9294 8.5061C17.8739 8.45902 17.8078 8.4261 17.7368 8.41018C17.6658 8.39425 17.5919 8.39578 17.5216 8.41465C17.4513 8.43351 17.3867 8.46914 17.3332 8.51849L15.0663 10.6104L14.0971 10.4023L13.889 9.43311L15.9809 7.16624C16.0303 7.11274 16.0659 7.04807 16.0848 6.97778C16.1036 6.90749 16.1052 6.83367 16.0892 6.76265C16.0733 6.69163 16.0404 6.62554 15.9933 6.57004C15.9462 6.51454 15.8864 6.47129 15.8189 6.44399C15.2041 6.19527 14.5376 6.10136 13.8779 6.17051C13.2183 6.23966 12.5857 6.46976 12.0358 6.84058C11.4859 7.2114 11.0355 7.7116 10.7242 8.29723C10.4128 8.88286 10.2501 9.53599 10.2502 10.1992C10.2495 10.7593 10.3644 11.3135 10.5877 11.8271L7.20087 14.7555C7.19243 14.7622 7.18456 14.7701 7.17668 14.7774C6.83908 15.115 6.64941 15.5729 6.64941 16.0504C6.64941 16.2868 6.69598 16.5209 6.78645 16.7393C6.87692 16.9577 7.00952 17.1561 7.17668 17.3233C7.34385 17.4905 7.5423 17.6231 7.76071 17.7135C7.97912 17.804 8.21321 17.8506 8.44962 17.8506C8.92706 17.8506 9.38495 17.6609 9.72256 17.3233C9.72987 17.316 9.73774 17.3076 9.74449 17.2997L12.6723 13.9117C13.289 14.1825 13.9636 14.2951 14.6348 14.2395C15.3061 14.1838 15.9528 13.9616 16.5166 13.593C17.0803 13.2244 17.5432 12.721 17.8634 12.1284C18.1835 11.5359 18.3509 10.8728 18.3502 10.1992C18.3511 9.67869 18.251 9.16292 18.0554 8.68049ZM14.3002 13.3492C13.7675 13.3485 13.2437 13.2131 12.7775 12.9555C12.6872 12.9056 12.5824 12.8882 12.4808 12.9064C12.3793 12.9245 12.287 12.977 12.2195 13.0551L9.07512 16.6967C8.90496 16.8583 8.67839 16.9471 8.4437 16.9441C8.20902 16.9411 7.98479 16.8466 7.81883 16.6806C7.65287 16.5146 7.5583 16.2904 7.5553 16.0557C7.55229 15.821 7.64109 15.5945 7.80274 15.4243L11.4416 12.2805C11.5198 12.213 11.5723 12.1206 11.5905 12.0189C11.6086 11.9172 11.5912 11.8123 11.5411 11.7219C11.2543 11.2031 11.1196 10.6139 11.1527 10.0219C11.1858 9.43 11.3853 8.85943 11.7282 8.37581C12.0711 7.89219 12.5435 7.51515 13.0911 7.28805C13.6387 7.06094 14.2393 6.99298 14.8239 7.09199L13.0689 8.9938C13.02 9.04677 12.9846 9.1107 12.9657 9.18019C12.9467 9.24969 12.9446 9.32273 12.9597 9.39318L13.2781 10.8742C13.2963 10.9589 13.3386 11.0366 13.3999 11.0979C13.4611 11.1591 13.5388 11.2014 13.6235 11.2196L15.1057 11.538C15.1761 11.5531 15.2492 11.5511 15.3187 11.5321C15.3882 11.5131 15.4521 11.4777 15.5051 11.4289L17.4069 9.67386C17.4827 10.1256 17.4592 10.5883 17.338 11.03C17.2169 11.4717 17.001 11.8817 16.7053 12.2315C16.4096 12.5813 16.0413 12.8625 15.626 13.0555C15.2106 13.2485 14.7582 13.3488 14.3002 13.3492Z" fill="#F5FFFA"/>
</svg>
