<svg width="92" height="44" viewBox="0 0 92 44" fill="none" xmlns="http://www.w3.org/2000/svg">
<path d="M40.6498 28.5971L35.3679 16.0204H38.7073L41.2538 22.4344C41.4051 22.8056 41.5334 23.1292 41.6407 23.4042C41.747 23.6801 41.8414 23.9377 41.9239 24.1769C42.0055 24.4171 42.0807 24.6591 42.1503 24.9048C42.2191 25.1504 42.2979 25.4291 42.3859 25.7399H41.8011C41.9019 25.3329 42.0018 24.9708 42.1027 24.6527C42.2035 24.3355 42.3163 24.0055 42.4418 23.6645C42.5674 23.3235 42.7251 22.9129 42.9139 22.4334L45.366 16.0195H48.6486L43.3283 28.5962H40.6498V28.5971Z" fill="#F5FFFA"/>
<path d="M51.4968 28.7594C50.6543 28.7594 49.9027 28.5467 49.2427 28.1214C48.5827 27.696 48.0574 27.1094 47.6678 26.3605C47.2783 25.6125 47.083 24.7645 47.083 23.8185C47.083 22.8725 47.2783 21.9925 47.6678 21.2491C48.0574 20.5066 48.5918 19.9227 49.2711 19.4974C49.9503 19.072 50.724 18.8594 51.5912 18.8594C52.0688 18.8594 52.506 18.9254 52.902 19.0574C53.298 19.1894 53.6473 19.3718 53.9488 19.6055C54.2504 19.8393 54.508 20.1088 54.7225 20.414C54.9361 20.7193 55.0928 21.0456 55.1937 21.393L54.5713 21.3215V19.0574H57.5706V28.598H54.5144V26.2981L55.1937 26.2798C55.0928 26.6153 54.9297 26.9325 54.7033 27.2322C54.4768 27.532 54.2 27.795 53.8728 28.0224C53.5455 28.2497 53.1807 28.4294 52.7783 28.5614C52.3758 28.6934 51.9478 28.7594 51.4949 28.7594H51.4968ZM52.3273 26.3339C52.792 26.3339 53.1953 26.2321 53.5345 26.0286C53.8737 25.8251 54.1386 25.5345 54.3265 25.1569C54.5153 24.7792 54.6098 24.3337 54.6098 23.8185C54.6098 23.3034 54.5153 22.857 54.3265 22.4802C54.1377 22.1025 53.8737 21.8092 53.5345 21.6002C53.1953 21.3903 52.792 21.2858 52.3273 21.2858C51.8625 21.2858 51.4812 21.3912 51.1484 21.6002C50.8148 21.8101 50.5544 22.1035 50.3656 22.4802C50.1768 22.8579 50.0823 23.3043 50.0823 23.8185C50.0823 24.3328 50.1768 24.7801 50.3656 25.1569C50.5544 25.5336 50.8148 25.8251 51.1484 26.0286C51.4812 26.2321 51.8744 26.3339 52.3273 26.3339Z" fill="#F5FFFA"/>
<path d="M59.0996 28.598V19.0574H61.9669L62.0614 20.998L61.4573 21.2134C61.5957 20.7825 61.8441 20.3902 62.2025 20.0364C62.5609 19.6835 62.9918 19.3984 63.495 19.183C63.9983 18.9675 64.5263 18.8594 65.0799 18.8594C65.8344 18.8594 66.4696 19.006 66.9857 19.2994C67.5009 19.5927 67.8914 20.03 68.1554 20.6111C68.4194 21.1923 68.5514 21.9018 68.5514 22.7405V28.598H65.5144V22.9743C65.5144 22.5911 65.4576 22.274 65.3449 22.0219C65.2321 21.7707 65.0589 21.5819 64.826 21.4563C64.5932 21.3307 64.3072 21.2739 63.968 21.2858C63.704 21.2858 63.4584 21.3252 63.2319 21.4022C63.0055 21.4801 62.8103 21.5938 62.6471 21.7432C62.4839 21.8935 62.3547 22.064 62.2603 22.2556C62.1659 22.4472 62.1191 22.6571 62.1191 22.8845V28.598H59.1005H59.0996Z" fill="#F5FFFA"/>
<path d="M71.6258 17.1706C71.0602 17.1706 70.6165 17.0423 70.2957 16.7847C69.9749 16.5271 69.8145 16.1586 69.8145 15.6801C69.8145 15.2493 69.9776 14.8954 70.3049 14.6204C70.6321 14.3454 71.0721 14.207 71.6258 14.207C72.1795 14.207 72.6323 14.3363 72.9467 14.5929C73.2611 14.8505 73.4179 15.2126 73.4179 15.6801C73.4179 16.1476 73.2575 16.4831 72.9366 16.7581C72.6158 17.034 72.1785 17.1715 71.6258 17.1715V17.1706ZM70.116 28.5978V19.0571H73.1346V28.5978H70.116Z" fill="#F5FFFA"/>
<path d="M73.8323 28.5993L77.8693 23.245L79.4918 25.0958L77.3981 28.5993H73.8323ZM81.0015 28.5993L78.8703 25.5266L77.8894 24.2148L73.9276 19.0586H77.5494L79.6054 21.9873L80.6807 23.3889L84.5857 28.5993H81.0015ZM80.4543 24.4486L78.851 22.6162L80.8319 19.0586H84.3978L80.4552 24.4486H80.4543Z" fill="#F5FFFA"/>
<g filter="url(#filter0_d_3029_27219)">
<path d="M24.2376 25.4053C24.4563 25.4053 24.6336 25.228 24.6336 25.0093C24.6336 24.7906 24.4563 24.6133 24.2376 24.6133C24.0188 24.6133 23.8416 24.7906 23.8416 25.0093C23.8416 25.228 24.0188 25.4053 24.2376 25.4053Z" fill="#4DDE95"/>
</g>
<path d="M22.7502 25.332L32.3082 34.4941L42.4988 37.0855L30.9424 39.5193L21.4292 30.8119L12.0142 28.4359L22.7502 25.332Z" fill="#4DDE95"/>
<path d="M24.7024 23.5606L11.9882 27.2566L4.64844 34.787L8.31877 23.5615L20.6168 19.6767L27.3818 12.7109L24.7024 23.5606Z" fill="#4DDE95"/>
<path d="M25.2612 26.1353L28.4173 13.2772L25.5665 3.15625L33.4526 11.948L30.6677 24.5393L33.3178 33.8811L25.2612 26.1353Z" fill="#4DDE95"/>
<path fill-rule="evenodd" clip-rule="evenodd" d="M84.5055 16.7477C84.5055 16.0189 85.0968 15.4277 85.8255 15.4277C86.5543 15.4277 87.1455 16.0189 87.1455 16.7477C87.1455 17.4764 86.5543 18.0677 85.8255 18.0677C85.0968 18.0677 84.5055 17.4764 84.5055 16.7477ZM85.8255 15.0977C84.9144 15.0977 84.1755 15.8365 84.1755 16.7477C84.1755 17.6588 84.9144 18.3977 85.8255 18.3977C86.7367 18.3977 87.4755 17.6588 87.4755 16.7477C87.4755 15.8365 86.7367 15.0977 85.8255 15.0977ZM84.8264 16.2682V16.4571H85.1179V17.2289H85.347V16.4571H85.6385V16.2682H84.8273H84.8264ZM86.0382 16.2682H85.7513V17.228H85.9768V16.6349H85.985L86.216 17.2216H86.3609L86.5919 16.6377H86.6001V17.2271H86.8256V16.2673H86.5387L86.2949 16.8613H86.2839L86.04 16.2673L86.0382 16.2682Z" fill="#F5FFFA"/>
<defs>
<filter id="filter0_d_3029_27219" x="22.0082" y="22.7799" width="4.45866" height="4.45964" filterUnits="userSpaceOnUse" color-interpolation-filters="sRGB">
<feFlood flood-opacity="0" result="BackgroundImageFix"/>
<feColorMatrix in="SourceAlpha" type="matrix" values="0 0 0 0 0 0 0 0 0 0 0 0 0 0 0 0 0 0 127 0" result="hardAlpha"/>
<feOffset/>
<feGaussianBlur stdDeviation="0.916667"/>
<feColorMatrix type="matrix" values="0 0 0 0 0.301961 0 0 0 0 0.870588 0 0 0 0 0.584314 0 0 0 1 0"/>
<feBlend mode="normal" in2="BackgroundImageFix" result="effect1_dropShadow_3029_27219"/>
<feBlend mode="normal" in="SourceGraphic" in2="effect1_dropShadow_3029_27219" result="shape"/>
</filter>
</defs>
</svg>
